<svg width="120" height="35" viewBox="0 0 120 35" fill="none" xmlns="http://www.w3.org/2000/svg">
    <path d="M0.263184 4C0.263184 1.79086 2.05404 0 4.26318 0H116C118.209 0 120 1.79086 120 4V31C120 33.2091 118.209 35 116 35H4.26319C2.05405 35 0.263184 33.2091 0.263184 31V4Z" fill="#333333"/>
    <path d="M59.6856 19.2353C57.5679 19.2353 55.8914 20.8235 55.8914 23.0294C55.8914 25.1471 57.5679 26.8235 59.6856 26.8235C61.8032 26.8235 63.4797 25.2353 63.4797 23.0294C63.4797 20.7353 61.8032 19.2353 59.6856 19.2353ZM59.6856 25.2353C58.5385 25.2353 57.5679 24.2647 57.5679 22.9412C57.5679 21.6177 58.5385 20.6471 59.6856 20.6471C60.8326 20.6471 61.8032 21.5294 61.8032 22.9412C61.8032 24.2647 60.8326 25.2353 59.6856 25.2353ZM51.4797 19.2353C49.362 19.2353 47.6856 20.8235 47.6856 23.0294C47.6856 25.1471 49.362 26.8235 51.4797 26.8235C53.5973 26.8235 55.2738 25.2353 55.2738 23.0294C55.2738 20.7353 53.5973 19.2353 51.4797 19.2353ZM51.4797 25.2353C50.3326 25.2353 49.362 24.2647 49.362 22.9412C49.362 21.6177 50.3326 20.6471 51.4797 20.6471C52.6267 20.6471 53.5973 21.5294 53.5973 22.9412C53.5973 24.2647 52.6267 25.2353 51.4797 25.2353ZM41.6856 20.3824V21.9706H45.4797C45.3915 22.853 45.0385 23.5588 44.5973 24C44.0679 24.5294 43.1856 25.1471 41.6856 25.1471C39.3032 25.1471 37.5385 23.2941 37.5385 20.9118C37.5385 18.5294 39.3915 16.6765 41.6856 16.6765C42.9209 16.6765 43.8915 17.2059 44.5973 17.8235L45.7444 16.6765C44.7738 15.7941 43.5385 15.0883 41.7738 15.0883C38.5974 15.0883 35.8621 17.7353 35.8621 20.9118C35.8621 24.0882 38.5974 26.7353 41.7738 26.7353C43.5385 26.7353 44.7738 26.2059 45.8326 25.0588C46.8915 24 47.2444 22.5 47.2444 21.353C47.2444 21 47.2444 20.6471 47.1562 20.3824H41.6856ZM81.7444 21.6177C81.3914 20.7353 80.5091 19.2353 78.5679 19.2353C76.6267 19.2353 75.0385 20.7353 75.0385 23.0294C75.0385 25.1471 76.6267 26.8235 78.7444 26.8235C80.4208 26.8235 81.4796 25.7647 81.8326 25.1471L80.5973 24.2647C80.1561 24.8824 79.6267 25.3235 78.7444 25.3235C77.862 25.3235 77.3326 24.9706 76.8914 24.1765L81.9208 22.0588L81.7444 21.6177ZM76.6267 22.853C76.6267 21.4412 77.7738 20.6471 78.5679 20.6471C79.1855 20.6471 79.8032 21 79.9796 21.4412L76.6267 22.853ZM72.4797 26.4706H74.1561V15.4412H72.4797V26.4706ZM69.8326 20.0294C69.3914 19.5883 68.6856 19.1471 67.8032 19.1471C65.9503 19.1471 64.1856 20.8235 64.1856 22.9412C64.1856 25.0588 65.862 26.6471 67.8032 26.6471C68.6856 26.6471 69.3914 26.2059 69.7444 25.7647H69.8326V26.2941C69.8326 27.7059 69.0385 28.5 67.8032 28.5C66.8326 28.5 66.1267 27.7941 65.9503 27.1765L64.5385 27.7941C64.9797 28.7647 66.0385 30 67.8914 30C69.8326 30 71.4208 28.8529 71.4208 26.1177V19.4118H69.8326V20.0294ZM67.8914 25.2353C66.7444 25.2353 65.7738 24.2647 65.7738 22.9412C65.7738 21.6177 66.7444 20.6471 67.8914 20.6471C69.0385 20.6471 69.9208 21.6177 69.9208 22.9412C69.9208 24.2647 69.0385 25.2353 67.8914 25.2353ZM89.4208 15.4412H85.4502V26.4706H87.1267V22.3235H89.4208C91.2738 22.3235 93.0385 21 93.0385 18.8824C93.0385 16.7647 91.2738 15.4412 89.4208 15.4412ZM89.5091 20.7353H87.1267V16.9412H89.5091C90.7443 16.9412 91.4502 18 91.4502 18.7941C91.362 19.7647 90.6561 20.7353 89.5091 20.7353ZM99.6561 19.1471C98.4208 19.1471 97.1855 19.6765 96.7443 20.8235L98.2443 21.4412C98.5973 20.8235 99.1267 20.6471 99.7443 20.6471C100.627 20.6471 101.421 21.1765 101.509 22.0588V22.1471C101.244 21.9706 100.538 21.7059 99.8326 21.7059C98.2443 21.7059 96.6561 22.5882 96.6561 24.1765C96.6561 25.6765 97.9796 26.6471 99.3914 26.6471C100.538 26.6471 101.068 26.1177 101.509 25.5882H101.597V26.4706H103.186V22.2353C103.009 20.2941 101.509 19.1471 99.6561 19.1471ZM99.4796 25.2353C98.9502 25.2353 98.1561 24.9706 98.1561 24.2647C98.1561 23.3824 99.1267 23.1177 99.9208 23.1177C100.627 23.1177 100.98 23.2941 101.421 23.4706C101.244 24.5294 100.362 25.2353 99.4796 25.2353ZM108.744 19.4118L106.891 24.1765H106.803L104.862 19.4118H103.097L106.009 26.1177L104.333 29.8235H106.009L110.509 19.4118H108.744ZM93.9208 26.4706H95.5973V15.4412H93.9208V26.4706Z" fill="white"/>
    <path d="M36.0386 11.4706V6.17649H37.6268C38.4209 6.17649 39.1268 6.44119 39.568 6.88237C40.0974 7.41178 40.2738 8.02943 40.2738 8.82354C40.2738 9.61766 40.0091 10.2353 39.568 10.7647C39.1268 11.2059 38.4209 11.4706 37.6268 11.4706H36.0386ZM36.7444 10.853H37.715C38.3327 10.853 38.7739 10.6765 39.1268 10.3235C39.4797 9.9706 39.6562 9.44119 39.6562 8.82354C39.6562 8.2059 39.4797 7.67649 39.1268 7.32355C38.7739 6.9706 38.2444 6.79414 37.715 6.79414H36.7444V10.853Z" fill="white"/>
    <path d="M41.2445 11.4706V6.17649H41.9503V11.4706H41.2445Z" fill="white"/>
    <path d="M44.6856 11.5588C44.3327 11.5588 43.8915 11.4706 43.5386 11.2059C43.1856 10.9412 42.9209 10.5882 42.8327 10.1471L43.4503 9.88235C43.5386 10.1471 43.715 10.4118 43.8915 10.5882C44.1562 10.7647 44.4209 10.8529 44.6856 10.8529C44.9503 10.8529 45.215 10.7647 45.4797 10.5882C45.6562 10.4118 45.8327 10.2353 45.8327 9.97058C45.8327 9.70588 45.7444 9.44117 45.4797 9.2647C45.3033 9.08823 44.9503 8.91176 44.5091 8.82353C44.068 8.64706 43.715 8.47059 43.4503 8.29412C43.1856 8.02941 43.0974 7.7647 43.0974 7.41176C43.0974 7.05882 43.2738 6.70588 43.5386 6.44118C43.8033 6.17647 44.2444 6 44.6856 6C45.1268 6 45.4797 6.08824 45.7444 6.35294C46.0091 6.61765 46.1856 6.79412 46.2738 7.05882L45.6562 7.32353C45.568 7.14706 45.4797 6.97059 45.3033 6.88235C45.1268 6.70588 44.8621 6.70588 44.5974 6.70588C44.3327 6.70588 44.1562 6.79412 43.8915 6.88235C43.8033 7.05882 43.715 7.23529 43.715 7.5C43.715 7.67647 43.8033 7.85294 43.9797 8.02941C44.1562 8.20588 44.4209 8.29412 44.7738 8.38235C45.0386 8.47059 45.215 8.55882 45.3915 8.64706C45.568 8.73529 45.7444 8.82353 45.9209 9C46.0974 9.08823 46.2738 9.2647 46.3621 9.52941C46.4503 9.70588 46.5386 9.97058 46.5386 10.2353C46.5386 10.5 46.4503 10.7647 46.3621 10.9412C46.2738 11.1176 46.0974 11.2941 45.9209 11.3823C45.6562 11.3823 45.4797 11.4706 45.3033 11.4706C45.1268 11.5588 44.8621 11.5588 44.6856 11.5588Z" fill="white"/>
    <path d="M48.1268 11.4706H47.4209V6.17649H49.1856C49.6268 6.17649 49.9797 6.35296 50.3327 6.61766C50.6856 6.88237 50.8621 7.32355 50.8621 7.76472C50.8621 8.2059 50.6856 8.55884 50.3327 8.91178C49.9797 9.17648 49.6268 9.35296 49.1856 9.35296H48.1268V11.4706ZM48.1268 8.64707H49.2738C49.5386 8.64707 49.8033 8.55884 49.9797 8.38237C50.1562 8.2059 50.2444 7.94119 50.2444 7.76472C50.2444 7.50002 50.1562 7.32355 49.9797 7.14708C49.8033 6.97061 49.5386 6.88237 49.2738 6.88237H48.1268V8.64707Z" fill="white"/>
    <path d="M56.068 10.7647C55.5385 11.2941 54.9209 11.5588 54.1268 11.5588C53.3327 11.5588 52.715 11.2941 52.1856 10.7647C51.6562 10.2353 51.3915 9.61764 51.3915 8.82352C51.3915 8.0294 51.6562 7.41176 52.1856 6.88235C52.715 6.35293 53.3327 6.08823 54.1268 6.08823C54.9209 6.08823 55.5385 6.35293 56.068 6.88235C56.5974 7.41176 56.8621 8.0294 56.8621 8.82352C56.8621 9.61764 56.5974 10.2353 56.068 10.7647ZM52.715 10.3235C53.068 10.6765 53.5974 10.9412 54.1268 10.9412C54.6562 10.9412 55.1856 10.7647 55.5386 10.3235C55.8915 9.97058 56.1562 9.44117 56.1562 8.82352C56.1562 8.20587 55.9797 7.67646 55.5386 7.32352C55.1856 6.97058 54.6562 6.70588 54.1268 6.70588C53.5974 6.70588 53.068 6.88235 52.715 7.32352C52.3621 7.67646 52.0974 8.20587 52.0974 8.82352C52.0974 9.44117 52.2738 9.97058 52.715 10.3235Z" fill="white"/>
    <path d="M57.8327 11.4706V6.17649H58.6268L61.1856 10.3235V6.17649H61.8915V11.4706H61.1856L58.4503 7.14708V11.4706H57.8327Z" fill="white"/>
    <path d="M63.1268 11.4706V6.17649H63.8327V11.4706H63.1268Z" fill="white"/>
    <path d="M64.9797 6.17649H66.9209C67.362 6.17649 67.715 6.35296 67.9797 6.61766C68.2444 6.88237 68.4209 7.23531 68.4209 7.67649C68.4209 7.94119 68.3326 8.11766 68.2444 8.38237C68.1562 8.55884 67.9797 8.73531 67.715 8.82354C67.9797 8.91178 68.1562 9.08825 68.3326 9.26472C68.5091 9.44119 68.5973 9.7059 68.5973 10.0588C68.5973 10.5 68.4209 10.853 68.1562 11.1177C67.8032 11.3824 67.4503 11.5588 67.0091 11.5588H64.9797V6.17649ZM65.6856 8.4706H66.9209C67.1856 8.4706 67.362 8.38237 67.5385 8.2059C67.715 8.02943 67.8032 7.85296 67.8032 7.67649C67.8032 7.50002 67.6267 7.23531 67.5385 7.05884C67.362 6.88237 67.1856 6.79414 66.9209 6.79414H65.6856V8.4706ZM65.6856 10.853H67.0973C67.362 10.853 67.5385 10.7647 67.715 10.5882C67.8914 10.4118 67.9797 10.2353 67.9797 9.9706C67.9797 9.79413 67.8914 9.52943 67.715 9.35296C67.5385 9.17648 67.362 9.08825 67.0973 9.08825H65.7738V10.853H65.6856Z" fill="white"/>
    <path d="M69.4797 11.4706V6.17649H70.1856V10.853H72.4797V11.4706H69.4797Z" fill="white"/>
    <path d="M76.4503 6.79414H74.0679V8.4706H76.2738V9.08825H74.0679V10.7647H76.4503V11.4706H73.362V6.17649H76.4503V6.79414Z" fill="white"/>
    <path d="M82.362 6.79414H79.9797V8.4706H82.1856V9.08825H79.9797V10.7647H82.362V11.4706H79.2738V6.17649H82.362V6.79414Z" fill="white"/>
    <path d="M83.4209 11.4706V6.17649H84.215L86.7738 10.3235V6.17649H87.4797V11.4706H86.7738L84.0385 7.14708V11.4706H83.4209Z" fill="white"/>
    <path d="M59.6856 19.2353C57.5679 19.2353 55.8914 20.8235 55.8914 23.0294C55.8914 25.1471 57.5679 26.8235 59.6856 26.8235C61.8032 26.8235 63.4797 25.2353 63.4797 23.0294C63.4797 20.7353 61.8032 19.2353 59.6856 19.2353ZM59.6856 25.2353C58.5385 25.2353 57.5679 24.2647 57.5679 22.9412C57.5679 21.6177 58.5385 20.6471 59.6856 20.6471C60.8326 20.6471 61.8032 21.5294 61.8032 22.9412C61.8032 24.2647 60.8326 25.2353 59.6856 25.2353ZM51.4797 19.2353C49.362 19.2353 47.6856 20.8235 47.6856 23.0294C47.6856 25.1471 49.362 26.8235 51.4797 26.8235C53.5973 26.8235 55.2738 25.2353 55.2738 23.0294C55.2738 20.7353 53.5973 19.2353 51.4797 19.2353ZM51.4797 25.2353C50.3326 25.2353 49.362 24.2647 49.362 22.9412C49.362 21.6177 50.3326 20.6471 51.4797 20.6471C52.6267 20.6471 53.5973 21.5294 53.5973 22.9412C53.5973 24.2647 52.6267 25.2353 51.4797 25.2353ZM41.6856 20.3824V21.9706H45.4797C45.3915 22.853 45.0385 23.5588 44.5973 24C44.0679 24.5294 43.1856 25.1471 41.6856 25.1471C39.3032 25.1471 37.5385 23.2941 37.5385 20.9118C37.5385 18.5294 39.3915 16.6765 41.6856 16.6765C42.9209 16.6765 43.8915 17.2059 44.5973 17.8235L45.7444 16.6765C44.7738 15.7941 43.5385 15.0883 41.7738 15.0883C38.5974 15.0883 35.8621 17.7353 35.8621 20.9118C35.8621 24.0882 38.5974 26.7353 41.7738 26.7353C43.5385 26.7353 44.7738 26.2059 45.8326 25.0588C46.8915 24 47.2444 22.5 47.2444 21.353C47.2444 21 47.2444 20.6471 47.1562 20.3824H41.6856ZM81.7444 21.6177C81.3914 20.7353 80.5091 19.2353 78.5679 19.2353C76.6267 19.2353 75.0385 20.7353 75.0385 23.0294C75.0385 25.1471 76.6267 26.8235 78.7444 26.8235C80.4208 26.8235 81.4796 25.7647 81.8326 25.1471L80.5973 24.2647C80.1561 24.8824 79.6267 25.3235 78.7444 25.3235C77.862 25.3235 77.3326 24.9706 76.8914 24.1765L81.9208 22.0588L81.7444 21.6177ZM76.6267 22.853C76.6267 21.4412 77.7738 20.6471 78.5679 20.6471C79.1855 20.6471 79.8032 21 79.9796 21.4412L76.6267 22.853ZM72.4797 26.4706H74.1561V15.4412H72.4797V26.4706ZM69.8326 20.0294C69.3914 19.5883 68.6856 19.1471 67.8032 19.1471C65.9503 19.1471 64.1856 20.8235 64.1856 22.9412C64.1856 25.0588 65.862 26.6471 67.8032 26.6471C68.6856 26.6471 69.3914 26.2059 69.7444 25.7647H69.8326V26.2941C69.8326 27.7059 69.0385 28.5 67.8032 28.5C66.8326 28.5 66.1267 27.7941 65.9503 27.1765L64.5385 27.7941C64.9797 28.7647 66.0385 30 67.8914 30C69.8326 30 71.4208 28.8529 71.4208 26.1177V19.4118H69.8326V20.0294ZM67.8914 25.2353C66.7444 25.2353 65.7738 24.2647 65.7738 22.9412C65.7738 21.6177 66.7444 20.6471 67.8914 20.6471C69.0385 20.6471 69.9208 21.6177 69.9208 22.9412C69.9208 24.2647 69.0385 25.2353 67.8914 25.2353ZM89.4208 15.4412H85.4502V26.4706H87.1267V22.3235H89.4208C91.2738 22.3235 93.0385 21 93.0385 18.8824C93.0385 16.7647 91.2738 15.4412 89.4208 15.4412ZM89.5091 20.7353H87.1267V16.9412H89.5091C90.7443 16.9412 91.4502 18 91.4502 18.7941C91.362 19.7647 90.6561 20.7353 89.5091 20.7353ZM99.6561 19.1471C98.4208 19.1471 97.1855 19.6765 96.7443 20.8235L98.2443 21.4412C98.5973 20.8235 99.1267 20.6471 99.7443 20.6471C100.627 20.6471 101.421 21.1765 101.509 22.0588V22.1471C101.244 21.9706 100.538 21.7059 99.8326 21.7059C98.2443 21.7059 96.6561 22.5882 96.6561 24.1765C96.6561 25.6765 97.9796 26.6471 99.3914 26.6471C100.538 26.6471 101.068 26.1177 101.509 25.5882H101.597V26.4706H103.186V22.2353C103.009 20.2941 101.509 19.1471 99.6561 19.1471ZM99.4796 25.2353C98.9502 25.2353 98.1561 24.9706 98.1561 24.2647C98.1561 23.3824 99.1267 23.1177 99.9208 23.1177C100.627 23.1177 100.98 23.2941 101.421 23.4706C101.244 24.5294 100.362 25.2353 99.4796 25.2353ZM108.744 19.4118L106.891 24.1765H106.803L104.862 19.4118H103.097L106.009 26.1177L104.333 29.8235H106.009L110.509 19.4118H108.744ZM93.9208 26.4706H95.5973V15.4412H93.9208V26.4706Z" stroke="white" stroke-width="0.170985" stroke-miterlimit="10"/>
    <path d="M36.0386 11.4706V6.17649H37.6268C38.4209 6.17649 39.1268 6.44119 39.568 6.88237C40.0974 7.41178 40.2738 8.02943 40.2738 8.82354C40.2738 9.61766 40.0091 10.2353 39.568 10.7647C39.1268 11.2059 38.4209 11.4706 37.6268 11.4706H36.0386ZM36.7444 10.853H37.715C38.3327 10.853 38.7739 10.6765 39.1268 10.3235C39.4797 9.9706 39.6562 9.44119 39.6562 8.82354C39.6562 8.2059 39.4797 7.67649 39.1268 7.32355C38.7739 6.9706 38.2444 6.79414 37.715 6.79414H36.7444V10.853Z" stroke="white" stroke-width="0.170985" stroke-miterlimit="10"/>
    <path d="M41.2445 11.4706V6.17649H41.9503V11.4706H41.2445Z" stroke="white" stroke-width="0.170985" stroke-miterlimit="10"/>
    <path d="M44.6856 11.5588C44.3327 11.5588 43.8915 11.4706 43.5386 11.2059C43.1856 10.9412 42.9209 10.5882 42.8327 10.1471L43.4503 9.88235C43.5386 10.1471 43.715 10.4118 43.8915 10.5882C44.1562 10.7647 44.4209 10.8529 44.6856 10.8529C44.9503 10.8529 45.215 10.7647 45.4797 10.5882C45.6562 10.4118 45.8327 10.2353 45.8327 9.97058C45.8327 9.70588 45.7444 9.44117 45.4797 9.2647C45.3033 9.08823 44.9503 8.91176 44.5091 8.82353C44.068 8.64706 43.715 8.47059 43.4503 8.29412C43.1856 8.02941 43.0974 7.7647 43.0974 7.41176C43.0974 7.05882 43.2738 6.70588 43.5386 6.44118C43.8033 6.17647 44.2444 6 44.6856 6C45.1268 6 45.4797 6.08824 45.7444 6.35294C46.0091 6.61765 46.1856 6.79412 46.2738 7.05882L45.6562 7.32353C45.568 7.14706 45.4797 6.97059 45.3033 6.88235C45.1268 6.70588 44.8621 6.70588 44.5974 6.70588C44.3327 6.70588 44.1562 6.79412 43.8915 6.88235C43.8033 7.05882 43.715 7.23529 43.715 7.5C43.715 7.67647 43.8033 7.85294 43.9797 8.02941C44.1562 8.20588 44.4209 8.29412 44.7738 8.38235C45.0386 8.47059 45.215 8.55882 45.3915 8.64706C45.568 8.73529 45.7444 8.82353 45.9209 9C46.0974 9.08823 46.2738 9.2647 46.3621 9.52941C46.4503 9.70588 46.5386 9.97058 46.5386 10.2353C46.5386 10.5 46.4503 10.7647 46.3621 10.9412C46.2738 11.1176 46.0974 11.2941 45.9209 11.3823C45.6562 11.3823 45.4797 11.4706 45.3033 11.4706C45.1268 11.5588 44.8621 11.5588 44.6856 11.5588Z" stroke="white" stroke-width="0.170985" stroke-miterlimit="10"/>
    <path d="M48.1268 11.4706H47.4209V6.17649H49.1856C49.6268 6.17649 49.9797 6.35296 50.3327 6.61766C50.6856 6.88237 50.8621 7.32355 50.8621 7.76472C50.8621 8.2059 50.6856 8.55884 50.3327 8.91178C49.9797 9.17648 49.6268 9.35296 49.1856 9.35296H48.1268V11.4706ZM48.1268 8.64707H49.2738C49.5386 8.64707 49.8033 8.55884 49.9797 8.38237C50.1562 8.2059 50.2444 7.94119 50.2444 7.76472C50.2444 7.50002 50.1562 7.32355 49.9797 7.14708C49.8033 6.97061 49.5386 6.88237 49.2738 6.88237H48.1268V8.64707Z" stroke="white" stroke-width="0.170985" stroke-miterlimit="10"/>
    <path d="M56.068 10.7647C55.5385 11.2941 54.9209 11.5588 54.1268 11.5588C53.3327 11.5588 52.715 11.2941 52.1856 10.7647C51.6562 10.2353 51.3915 9.61764 51.3915 8.82352C51.3915 8.0294 51.6562 7.41176 52.1856 6.88235C52.715 6.35293 53.3327 6.08823 54.1268 6.08823C54.9209 6.08823 55.5385 6.35293 56.068 6.88235C56.5974 7.41176 56.8621 8.0294 56.8621 8.82352C56.8621 9.61764 56.5974 10.2353 56.068 10.7647ZM52.715 10.3235C53.068 10.6765 53.5974 10.9412 54.1268 10.9412C54.6562 10.9412 55.1856 10.7647 55.5386 10.3235C55.8915 9.97058 56.1562 9.44117 56.1562 8.82352C56.1562 8.20587 55.9797 7.67646 55.5386 7.32352C55.1856 6.97058 54.6562 6.70588 54.1268 6.70588C53.5974 6.70588 53.068 6.88235 52.715 7.32352C52.3621 7.67646 52.0974 8.20587 52.0974 8.82352C52.0974 9.44117 52.2738 9.97058 52.715 10.3235Z" stroke="white" stroke-width="0.170985" stroke-miterlimit="10"/>
    <path d="M57.8327 11.4706V6.17649H58.6268L61.1856 10.3235V6.17649H61.8915V11.4706H61.1856L58.4503 7.14708V11.4706H57.8327Z" stroke="white" stroke-width="0.170985" stroke-miterlimit="10"/>
    <path d="M63.1268 11.4706V6.17649H63.8327V11.4706H63.1268Z" stroke="white" stroke-width="0.170985" stroke-miterlimit="10"/>
    <path d="M64.9797 6.17649H66.9209C67.362 6.17649 67.715 6.35296 67.9797 6.61766C68.2444 6.88237 68.4209 7.23531 68.4209 7.67649C68.4209 7.94119 68.3326 8.11766 68.2444 8.38237C68.1562 8.55884 67.9797 8.73531 67.715 8.82354C67.9797 8.91178 68.1562 9.08825 68.3326 9.26472C68.5091 9.44119 68.5973 9.7059 68.5973 10.0588C68.5973 10.5 68.4209 10.853 68.1562 11.1177C67.8032 11.3824 67.4503 11.5588 67.0091 11.5588H64.9797V6.17649ZM65.6856 8.4706H66.9209C67.1856 8.4706 67.362 8.38237 67.5385 8.2059C67.715 8.02943 67.8032 7.85296 67.8032 7.67649C67.8032 7.50002 67.6267 7.23531 67.5385 7.05884C67.362 6.88237 67.1856 6.79414 66.9209 6.79414H65.6856V8.4706ZM65.6856 10.853H67.0973C67.362 10.853 67.5385 10.7647 67.715 10.5882C67.8914 10.4118 67.9797 10.2353 67.9797 9.9706C67.9797 9.79413 67.8914 9.52943 67.715 9.35296C67.5385 9.17648 67.362 9.08825 67.0973 9.08825H65.7738V10.853H65.6856Z" stroke="white" stroke-width="0.170985" stroke-miterlimit="10"/>
    <path d="M69.4797 11.4706V6.17649H70.1856V10.853H72.4797V11.4706H69.4797Z" stroke="white" stroke-width="0.170985" stroke-miterlimit="10"/>
    <path d="M76.4503 6.79414H74.0679V8.4706H76.2738V9.08825H74.0679V10.7647H76.4503V11.4706H73.362V6.17649H76.4503V6.79414Z" stroke="white" stroke-width="0.170985" stroke-miterlimit="10"/>
    <path d="M82.362 6.79414H79.9797V8.4706H82.1856V9.08825H79.9797V10.7647H82.362V11.4706H79.2738V6.17649H82.362V6.79414Z" stroke="white" stroke-width="0.170985" stroke-miterlimit="10"/>
    <path d="M83.4209 11.4706V6.17649H84.215L86.7738 10.3235V6.17649H87.4797V11.4706H86.7738L84.0385 7.14708V11.4706H83.4209Z" stroke="white" stroke-width="0.170985" stroke-miterlimit="10"/>
    <path d="M10.6937 6.37223C10.4223 6.66152 10.2632 7.10946 10.2632 7.67872V28.3213C10.2632 28.8999 10.4223 29.3478 10.6937 29.6278L10.7592 29.6931L22.354 18.14V18V17.86L10.7592 6.3069L10.6937 6.37223Z" fill="url(#paint0_linear)"/>
    <path d="M26.2191 21.9941L22.3541 18.14V18V17.86L26.2191 14.0059L26.3033 14.0525L30.8795 16.6469C32.1896 17.3841 32.1896 18.5973 30.8795 19.3438L26.3033 21.9381L26.2191 21.9941Z" fill="url(#paint1_linear)"/>
    <path d="M26.3031 21.9381L22.354 18L10.6936 29.6278C11.1241 30.085 11.8353 30.141 12.6401 29.6838L26.3031 21.9381Z" fill="url(#paint2_linear)"/>
    <path d="M26.3033 14.0619L12.631 6.31624C11.8262 5.85897 11.1149 5.91496 10.6844 6.37223L22.3542 18L26.3033 14.0619Z" fill="url(#paint3_linear)"/>
    <defs>
        <linearGradient id="paint0_linear" x1="17.2758" y1="-7.72491" x2="-1.28538" y2="-2.77744" gradientUnits="userSpaceOnUse">
            <stop stop-color="#00A0FF"/>
            <stop offset="0.00657445" stop-color="#00A1FF"/>
            <stop offset="0.2601" stop-color="#00BEFF"/>
            <stop offset="0.5122" stop-color="#00D2FF"/>
            <stop offset="0.7604" stop-color="#00DFFF"/>
            <stop offset="1" stop-color="#00E3FF"/>
        </linearGradient>
        <linearGradient id="paint1_linear" x1="32.5868" y1="8.48895" x2="9.94277" y2="8.48895" gradientUnits="userSpaceOnUse">
            <stop stop-color="#FFE000"/>
            <stop offset="0.4087" stop-color="#FFBD00"/>
            <stop offset="0.7754" stop-color="#FFA500"/>
            <stop offset="1" stop-color="#FF9C00"/>
        </linearGradient>
        <linearGradient id="paint2_linear" x1="10.344" y1="11.9563" x2="-4.50711" y2="37.0151" gradientUnits="userSpaceOnUse">
            <stop stop-color="#FF3A44"/>
            <stop offset="1" stop-color="#C31162"/>
        </linearGradient>
        <linearGradient id="paint3_linear" x1="1.58091" y1="3.1537" x2="8.20584" y2="14.3455" gradientUnits="userSpaceOnUse">
            <stop stop-color="#32A071"/>
            <stop offset="0.0685" stop-color="#2DA771"/>
            <stop offset="0.4762" stop-color="#15CF74"/>
            <stop offset="0.8009" stop-color="#06E775"/>
            <stop offset="1" stop-color="#00F076"/>
        </linearGradient>
    </defs>
</svg>
