<svg width="80" height="80" viewBox="0 0 80 80" fill="none" xmlns="http://www.w3.org/2000/svg">
    <path d="M0 40.0002C0 17.9088 17.9086 0 40 0C62.0914 0 80 17.9088 80 40.0002C80 62.0915 62.0914 80.0003 40 80.0003C17.9086 80.0003 0 62.0915 0 40.0002Z" fill="#BCD6FF"/>
    <path d="M40 79.0003C18.4609 79.0003 1 61.5393 1 40.0002H-1C-1 62.6438 17.3563 81.0003 40 81.0003V79.0003ZM79 40.0002C79 61.5393 61.5391 79.0003 40 79.0003V81.0003C62.6437 81.0003 81 62.6438 81 40.0002H79ZM40 1C61.5391 1 79 18.461 79 40.0002H81C81 17.3565 62.6437 -1 40 -1V1ZM40 -1C17.3563 -1 -1 17.3565 -1 40.0002H1C1 18.461 18.4609 1 40 1V-1Z" fill="#CCCCCC"/>
</svg>
