<svg width="37" height="20" viewBox="0 0 37 20" fill="none" xmlns="http://www.w3.org/2000/svg">
    <path d="M17.7463 2.97257C17.6827 2.97309 17.6084 2.99473 17.5336 3.01274C17.3379 3.06074 16.0199 3.33396 15.3664 3.35611C14.7129 3.38195 14.6169 3.42995 14.628 3.56656C14.6391 3.70316 14.5541 3.825 15.4033 3.825C16.2525 3.825 16.1787 4.66311 16.1787 4.66311V9.44436C15.4144 8.59518 14.3991 8.18905 13.1438 8.22228C10.6664 8.22228 8.65793 10.3342 8.65793 12.9371C8.65793 15.54 10.3563 17.626 13.1438 17.6519C14.5283 17.6962 15.5953 17.0279 16.3522 16.0606C16.474 17.0501 16.7583 17.6629 16.7583 17.6629C16.7583 17.6629 18.1724 17.2679 18.8 17.1091C19.4277 16.9504 19.4535 16.8765 19.4535 16.7288C19.4535 16.5812 19.0954 16.7252 18.4936 16.5036C17.8918 16.2821 17.9287 15.2225 17.9287 15.2225V3.26011C17.9287 3.02936 17.8523 2.97165 17.7463 2.97257H17.7463ZM8.98948 8.22892C8.9528 8.22827 8.91612 8.22852 8.87946 8.22966C8.27026 8.24812 7.46539 8.72064 6.91158 9.07139C6.91158 9.07139 6.19155 8.46223 5.29437 8.26655H3.03489C3.03489 8.26655 0.295367 8.90532 0.295367 11.5525C0.295367 11.5525 0.251025 13.7235 2.46627 14.377C2.46627 14.377 0.631309 14.7647 0.675614 16.3412C0.697766 17.1276 1.16301 17.6076 2.19679 17.8623C2.19679 17.8623 2.72106 18.01 3.5887 18.0728C4.45634 18.1355 5.63781 18.154 6.247 18.2832C6.95588 18.4309 7.76076 18.9552 7.69799 20H9.01606C9.01606 20 9.1379 18.7373 8.84254 18.0691C8.54717 17.3971 7.67953 16.6956 6.4796 16.5036C5.27968 16.3116 2.98317 16.2932 2.70626 16.2895C2.42935 16.2858 1.67248 16.2415 1.67248 15.636C1.67248 15.0342 2.51427 14.7979 3.00163 14.7979C3.48898 14.7979 5.3461 14.8533 6.37988 14.2256C7.18845 13.7346 7.83087 13.1808 7.94163 11.6781C8.05239 10.1754 7.2106 9.40744 7.2106 9.40744C7.2106 9.40744 7.46535 9.1453 7.75703 9.03823C8.06347 8.92747 8.45852 8.97546 8.65051 9.16007C8.8425 9.34467 9.14156 9.67696 9.34462 9.70281C9.54769 9.72865 9.73967 9.72127 9.73967 9.72127V8.44011C9.73967 8.44011 9.51904 8.23889 8.98948 8.22892ZM4.14621 8.56933C5.30552 8.56933 6.24331 9.6142 6.24331 11.4602C6.24331 13.465 5.30552 14.3511 4.14621 14.3511C2.98689 14.3511 2.04911 13.4281 2.04911 11.4602C2.04911 9.44067 2.98686 8.56933 4.14617 8.56933H4.14621ZM13.417 8.71333C14.9234 8.71333 16.2156 9.18591 16.1418 12.9482C16.2267 16.751 14.8385 17.1941 13.417 17.183C11.4418 17.1719 10.6923 15.2889 10.6923 12.9482C10.6923 10.6074 11.6411 8.81301 13.417 8.71333ZM24.6853 9.13422C25.6932 9.49605 25.5677 10.8141 25.5972 11.4602C25.6267 12.1064 25.2465 12.2799 25.0508 12.3648C24.8551 12.4497 22.614 13.2324 21.5359 13.8343C20.4578 14.4361 19.8302 15.1708 19.8745 16.0864C19.9188 17.0021 20.2511 17.9029 22.0602 17.9399C23.8693 17.9768 25.1911 16.7695 25.3166 16.6402C25.4422 16.511 25.4569 16.6402 25.4569 16.6402C25.6785 17.2568 26.0477 17.9325 27.3399 17.9325C28.6321 17.9325 29.0013 16.8618 28.7576 16.7621C28.5102 16.6624 28.6838 17.1202 27.8457 17.1202C27.0076 17.1202 27.0962 16.0606 27.0962 16.0606C27.0962 16.0606 27.1959 12.2467 27.1959 10.9913C27.1959 9.73604 26.3836 9.13422 26.3836 9.13422H24.6853ZM20.8418 9.14161C20.8418 9.14161 20.144 9.66958 20.1588 10.3674C20.1773 11.1723 21.5507 11.2646 21.6541 10.5077C21.7612 9.72127 21.8091 9.38159 22.3851 9.14161H20.8418ZM25.5861 12.6011C25.5861 12.6011 25.4864 15.2151 25.4716 15.6323C25.4568 16.0384 25.4642 16.1123 24.3824 16.7842C22.9868 17.6113 21.979 17.0833 21.7464 16.3375C21.5064 15.5548 21.7057 14.6613 22.5992 14.0262C23.4927 13.3912 25.5861 12.6011 25.5861 12.6011ZM1.48023 18.3502C1.28846 18.3521 1.06971 18.4035 0.845413 18.5343C0.147609 18.9441 0.0221525 19.7896 0 20H1.21839C1.27377 19.5533 1.76474 18.9958 2.0638 18.8075C2.28407 18.6642 1.97028 18.3454 1.48023 18.3502V18.3502ZM21.7648 0V0.664576H22.4294V0H21.7648ZM22.6287 0.867641V1.53222H23.2933V0.867641H22.6287ZM23.4779 0.867641V1.53222H24.1424V0.867641H23.4779ZM24.3271 0.867641V1.53222H24.9916V0.867641H24.3271ZM22.6287 1.73159V2.39616H23.2933V1.73159H22.6287ZM23.4779 1.73159V2.39616H24.1424V1.73159H23.4779ZM24.3271 1.73159V2.39616H24.9916V1.73159H24.3271ZM25.1762 1.73159V2.39616H25.8408V1.73159H25.1762ZM22.6287 2.59185V3.25642H23.2933V2.59185H22.6287ZM23.4779 2.59185V3.25642H24.1424V2.59185H23.4779ZM24.3271 2.59185V3.25642H24.9916V2.59185H24.3271ZM28.621 2.59185V3.25642H29.2856V2.59185H28.621ZM29.4702 2.59185V3.25642H30.1347V2.59185H29.4702ZM24.3271 3.45579V4.12037H24.9917V3.45579H24.3271ZM25.1763 3.45579V4.12037H25.8409V3.45579H25.1763ZM26.0255 3.45579V4.12037H26.6901V3.45579H26.0255ZM29.4702 4.29021V4.95478H30.1348V4.29021H29.4702ZM30.3194 4.29021V4.95478H30.9839V4.29021H30.3194ZM31.1722 4.29021V4.95478H31.8368V4.29021H31.1722ZM26.0255 4.31974V4.98432H26.6901V4.31974H26.0255ZM26.8747 4.31974V4.98432H27.5392V4.31974H26.8747ZM27.7681 5.15046V5.81504H28.4327V5.15046H27.7681ZM28.621 5.15046V5.81504H29.2856V5.15046H28.621ZM29.4702 5.15046V5.81504H30.1348V5.15046H29.4702ZM30.3194 5.15046V5.81504H30.9839V5.15046H30.3194ZM31.1722 5.15046V5.81504H31.8368V5.15046H31.1722ZM32.0251 5.15046V5.81504H32.6897V5.15046H32.0251ZM28.6173 6.01441V6.67899H29.2819V6.01441H28.6173ZM29.4702 6.01441V6.67899H30.1348V6.01441H29.4702ZM30.3194 6.01441V6.67899H30.9839V6.01441H30.3194ZM31.1686 6.01441V6.67899H31.8331V6.01441H31.1686ZM32.0214 6.01441V6.67899H32.686V6.01441H32.0214ZM32.8743 6.01441V6.67899H33.5389V6.01441H32.8743ZM33.7235 6.01441V6.67899H34.3881V6.01441H33.7235ZM28.6173 6.87467V7.53924H29.2819V6.87467H28.6173ZM29.4702 6.87467V7.53924H30.1348V6.87467H29.4702ZM30.3194 6.87467V7.53924H30.9839V6.87467H30.3194ZM31.1686 6.87467V7.53924H31.8331V6.87467H31.1686ZM32.0214 6.87467V7.53924H32.686V6.87467H32.0214ZM32.8743 6.87467V7.53924H33.5389V6.87467H32.8743ZM33.7235 6.87467V7.53924H34.3881V6.87467H33.7235ZM34.58 6.87467V7.53924H35.2446V6.87467H34.58ZM28.6173 7.73862V8.40319H29.2819V7.73862H28.6173ZM29.4702 7.73862V8.40319H30.1348V7.73862H29.4702ZM30.3194 7.73862V8.40319H30.9839V7.73862H30.3194ZM31.1686 7.73862V8.40319H31.8331V7.73862H31.1686ZM32.0214 7.73862V8.40319H32.686V7.73862H32.0214ZM32.8743 7.73862V8.40319H33.5389V7.73862H32.8743ZM33.7235 7.73862V8.40319H34.3881V7.73862H33.7235ZM34.58 7.73862V8.40319H35.2446V7.73862H34.58ZM35.4292 7.73862V8.40319H36.0938V7.73862H35.4292ZM36.2821 7.73862V8.40319H36.9467V7.73862H36.2821ZM28.6173 8.60256V9.26714H29.2819V8.60256H28.6173ZM29.4702 8.60256V9.26714H30.1348V8.60256H29.4702ZM30.3194 8.60256V9.26714H30.9839V8.60256H30.3194ZM31.1686 8.60256V9.26714H31.8331V8.60256H31.1686ZM32.0214 8.60256V9.26714H32.686V8.60256H32.0214ZM32.8743 8.60256V9.26714H33.5389V8.60256H32.8743ZM33.7235 8.60256V9.26714H34.3881V8.60256H33.7235ZM34.58 8.60256V9.26714H35.2446V8.60256H34.58ZM35.4292 8.60256V9.26714H36.0938V8.60256H35.4292ZM36.2821 8.60256V9.26714H36.9467V8.60256H36.2821ZM29.4739 9.46651V10.1311H30.1385V9.46651H29.4739ZM30.3268 9.46651V10.1311H30.9913V9.46651H30.3268ZM31.1759 9.46651V10.1311H31.8405V9.46651H31.1759ZM32.0251 9.46651V10.1311H32.6897V9.46651H32.0251ZM32.878 9.46651V10.1311H33.5426V9.46651H32.878ZM33.7272 9.46651V10.1311H34.3918V9.46651H33.7272ZM34.5801 9.46651V10.1311H35.2446V9.46651H34.5801ZM35.4366 9.46651V10.1311H36.1012V9.46651H35.4366ZM30.3231 10.3268V10.9913H30.9876V10.3268H30.3231ZM31.1759 10.3268V10.9913H31.8405V10.3268H31.1759ZM32.0251 10.3268V10.9913H32.6897V10.3268H32.0251ZM32.8743 10.3268V10.9913H33.5389V10.3268H32.8743ZM33.7272 10.3268V10.9913H34.3918V10.3268H33.7272ZM34.5764 10.3268V10.9913H35.241V10.3268H34.5764ZM35.4293 10.3268V10.9913H36.0938V10.3268H35.4293ZM30.3231 11.1907V11.8553H30.9876V11.1907H30.3231ZM31.1759 11.1907V11.8553H31.8405V11.1907H31.1759ZM32.0251 11.1907V11.8553H32.6897V11.1907H32.0251ZM32.8743 11.1907V11.8553H33.5389V11.1907H32.8743ZM33.7272 11.1907V11.8553H34.3918V11.1907H33.7272ZM30.3231 12.0547V12.7192H30.9876V12.0547H30.3231ZM31.1759 12.0547V12.7192H31.8405V12.0547H31.1759ZM32.0251 12.0547V12.7192H32.6897V12.0547H32.0251ZM32.8743 12.0547V12.7192H33.5389V12.0547H32.8743ZM33.7272 12.0547V12.7192H34.3918V12.0547H33.7272ZM30.3231 12.9186V13.5832H30.9876V12.9186H30.3231ZM31.1759 12.9186V13.5832H31.8405V12.9186H31.1759ZM32.0251 12.9186V13.5832H32.6897V12.9186H32.0251ZM32.8743 12.9186V13.5832H33.5389V12.9186H32.8743ZM30.3231 13.7826V14.4471H30.9876V13.7826H30.3231ZM31.1759 13.7826V14.4471H31.8405V13.7826H31.1759ZM32.0251 13.7826V14.4471H32.6897V13.7826H32.0251ZM30.3231 14.6428V15.3074H30.9876V14.6428H30.3231ZM31.1759 14.6428V15.3074H31.8405V14.6428H31.1759ZM30.3231 15.5068V16.1713H30.9876V15.5068H30.3231ZM31.1759 15.5068V16.1713H31.8405V15.5068H31.1759ZM30.3231 16.3707V17.0353H30.9876V16.3707H30.3231ZM30.3231 17.231V17.8955H30.9876V17.231H30.3231ZM31.1759 17.231V17.8955H31.8405V17.231H31.1759Z" fill="#5A5A5A"/>
</svg>
