<svg width="120" height="35" viewBox="0 0 120 35" fill="none" xmlns="http://www.w3.org/2000/svg">
    <path d="M0 4C0 1.79086 1.79086 0 4 0H115.737C117.946 0 119.737 1.79086 119.737 4V31C119.737 33.2091 117.946 35 115.737 35H4C1.79086 35 0 33.2091 0 31V4Z" fill="#333333"/>
    <path d="M42.9027 24.0154H38.4428L37.3717 27.1779H35.4827L39.707 15.4774H41.6697L45.894 27.1779H43.9728L42.9027 24.0154ZM38.9047 22.5561H42.4399L40.6971 17.4235H40.6484L38.9047 22.5561Z" fill="white"/>
    <path d="M55.0172 22.9131C55.0172 25.564 53.5984 27.2672 51.4572 27.2672C50.9148 27.2956 50.3754 27.1706 49.9007 26.9067C49.426 26.6427 49.0353 26.2504 48.7732 25.7747H48.7326V30H46.9816V18.6473H48.6765V20.0662H48.7088C48.9829 19.5927 49.3803 19.2025 49.8586 18.9369C50.3369 18.6714 50.8782 18.5404 51.425 18.5581C53.5901 18.5581 55.0172 20.2695 55.0172 22.9131ZM53.2174 22.9131C53.2174 21.186 52.3249 20.0505 50.9631 20.0505C49.6252 20.0505 48.7253 21.2099 48.7253 22.9131C48.7253 24.6319 49.6252 25.783 50.9631 25.783C52.3249 25.783 53.2174 24.6558 53.2174 22.9131Z" fill="white"/>
    <path d="M64.4063 22.9131C64.4063 25.564 62.9875 27.2672 60.8463 27.2672C60.3039 27.2956 59.7645 27.1706 59.2898 26.9067C58.8151 26.6427 58.4244 26.2504 58.1623 25.7747H58.1218V30H56.3707V18.6473H58.0656V20.0662H58.0978C58.372 19.5927 58.7693 19.2025 59.2476 18.9369C59.7259 18.6714 60.2673 18.5404 60.8141 18.5581C62.9792 18.5581 64.4063 20.2695 64.4063 22.9131ZM62.6065 22.9131C62.6065 21.186 61.714 20.0505 60.3522 20.0505C59.0143 20.0505 58.1144 21.2099 58.1144 22.9131C58.1144 24.6319 59.0143 25.783 60.3522 25.783C61.714 25.783 62.6065 24.6558 62.6065 22.9131Z" fill="white"/>
    <path d="M70.6118 23.9179C70.7415 25.0782 71.8687 25.84 73.409 25.84C74.8849 25.84 75.9467 25.0781 75.9467 24.0319C75.9467 23.1238 75.3063 22.58 73.7899 22.2073L72.2735 21.842C70.125 21.323 69.1276 20.3183 69.1276 18.6878C69.1276 16.669 70.8869 15.2823 73.3851 15.2823C75.8575 15.2823 77.5524 16.669 77.6094 18.6878H75.8418C75.736 17.5201 74.7708 16.8153 73.3602 16.8153C71.9496 16.8153 70.9844 17.5284 70.9844 18.5663C70.9844 19.3935 71.6009 19.8803 73.109 20.2529L74.3981 20.5694C76.7987 21.1371 77.7962 22.1015 77.7962 23.8129C77.7962 26.0019 76.0525 27.3729 73.2792 27.3729C70.6844 27.3729 68.9325 26.0341 68.8193 23.9178L70.6118 23.9179Z" fill="white"/>
    <path d="M81.5752 16.6285V18.6473H83.1974V20.034H81.5752V24.7368C81.5752 25.4674 81.9 25.8079 82.6131 25.8079C82.8057 25.8045 82.998 25.791 83.1891 25.7673V27.1457C82.8685 27.2056 82.5427 27.2327 82.2166 27.2267C80.4895 27.2267 79.8159 26.578 79.8159 24.9236V20.034H78.5756V18.6473H79.8159V16.6285H81.5752Z" fill="white"/>
    <path d="M84.1369 22.9131C84.1369 20.2291 85.7177 18.5424 88.1828 18.5424C90.6561 18.5424 92.2296 20.229 92.2296 22.9131C92.2296 25.6045 90.6644 27.2838 88.1828 27.2838C85.702 27.2838 84.1369 25.6045 84.1369 22.9131ZM90.4454 22.9131C90.4454 21.0719 89.6016 19.9852 88.1828 19.9852C86.7639 19.9852 85.9211 21.0802 85.9211 22.9131C85.9211 24.7617 86.7639 25.8401 88.1828 25.8401C89.6016 25.8401 90.4454 24.7617 90.4454 22.9131Z" fill="white"/>
    <path d="M93.6732 18.6473H95.3433V20.0993H95.3838C95.4968 19.6458 95.7624 19.2451 96.1361 18.9644C96.5098 18.6837 96.9687 18.5402 97.4357 18.5581C97.6375 18.5574 97.8387 18.5793 98.0356 18.6234V20.2612C97.7809 20.1834 97.5151 20.1477 97.2489 20.1554C96.9945 20.1451 96.7409 20.19 96.5055 20.2869C96.2701 20.3838 96.0584 20.5306 95.8851 20.717C95.7118 20.9035 95.5808 21.1253 95.5013 21.3671C95.4217 21.6089 95.3954 21.8651 95.4242 22.1181V27.1779H93.6732L93.6732 18.6473Z" fill="white"/>
    <path d="M106.109 24.6724C105.873 26.221 104.365 27.2838 102.436 27.2838C99.9541 27.2838 98.4138 25.6211 98.4138 22.9536C98.4138 20.2778 99.9624 18.5424 102.362 18.5424C104.722 18.5424 106.206 20.1637 106.206 22.7502V23.3502H100.181V23.456C100.154 23.7699 100.193 24.0862 100.297 24.3838C100.4 24.6814 100.566 24.9535 100.783 25.182C101.001 25.4105 101.264 25.5903 101.556 25.7093C101.847 25.8283 102.161 25.8838 102.476 25.8723C102.89 25.911 103.305 25.8152 103.66 25.599C104.015 25.3828 104.291 25.0578 104.446 24.6724L106.109 24.6724ZM100.19 22.1264H104.454C104.47 21.8441 104.427 21.5616 104.329 21.2966C104.23 21.0317 104.078 20.79 103.881 20.5867C103.685 20.3834 103.449 20.2229 103.187 20.1152C102.926 20.0076 102.645 19.9552 102.362 19.9613C102.077 19.9596 101.794 20.0144 101.53 20.1225C101.267 20.2306 101.027 20.3899 100.825 20.5912C100.623 20.7925 100.463 21.0318 100.354 21.2953C100.245 21.5588 100.189 21.8412 100.19 22.1264Z" fill="white"/>
    <path d="M36.4253 9.48319C36.4253 7.65993 37.3952 6.53368 38.9576 6.53368C39.5207 6.50579 40.0737 6.69067 40.5068 7.05161C40.94 7.41255 41.2215 7.92316 41.2956 8.48208H40.4261C40.3532 8.15085 40.1661 7.8558 39.8977 7.6485C39.6292 7.4412 39.2965 7.33484 38.9576 7.34801C37.9482 7.34801 37.317 8.17016 37.317 9.48319C37.317 10.7926 37.9482 11.6142 38.9612 11.6142C39.2878 11.6387 39.6126 11.5486 39.8799 11.3595C40.1473 11.1705 40.3404 10.8942 40.4261 10.5782H41.2956C41.2108 11.1238 40.9234 11.6173 40.4907 11.9603C40.058 12.3033 39.5118 12.4705 38.9612 12.4286C37.3989 12.4286 36.4253 11.3028 36.4253 9.48319Z" fill="white"/>
    <path d="M42.2507 10.1692C42.2241 9.89034 42.256 9.60902 42.3444 9.34325C42.4328 9.07747 42.5758 8.83312 42.7642 8.62584C42.9526 8.41857 43.1822 8.25296 43.4383 8.13963C43.6945 8.02631 43.9715 7.96777 44.2516 7.96777C44.5317 7.96777 44.8087 8.02631 45.0648 8.13963C45.321 8.25296 45.5506 8.41857 45.739 8.62584C45.9274 8.83312 46.0704 9.07747 46.1588 9.34325C46.2472 9.60902 46.2791 9.89034 46.2524 10.1692C46.2796 10.4483 46.2481 10.73 46.1599 10.9962C46.0717 11.2624 45.9288 11.5072 45.7404 11.7149C45.5519 11.9225 45.3221 12.0885 45.0657 12.2021C44.8093 12.3156 44.532 12.3743 44.2516 12.3743C43.9712 12.3743 43.6938 12.3156 43.4374 12.2021C43.181 12.0885 42.9512 11.9225 42.7628 11.7149C42.5744 11.5072 42.4314 11.2624 42.3433 10.9962C42.2551 10.73 42.2236 10.4483 42.2507 10.1692ZM45.3912 10.1692C45.3912 9.24948 44.978 8.71166 44.253 8.71166C43.5251 8.71166 43.1157 9.24948 43.1157 10.1692C43.1157 11.0962 43.5252 11.6299 44.253 11.6299C44.978 11.6299 45.3912 11.0925 45.3912 10.1692Z" fill="white"/>
    <path d="M47.3759 8.04961H48.182V8.72361H48.2445C48.3507 8.48153 48.5297 8.2786 48.7567 8.14311C48.9836 8.00761 49.2472 7.94629 49.5106 7.96771C49.7171 7.95219 49.9244 7.98332 50.1172 8.05878C50.3099 8.13425 50.4833 8.25213 50.6243 8.40368C50.7653 8.55523 50.8705 8.73657 50.9319 8.93427C50.9933 9.13197 51.0095 9.34095 50.9792 9.54574V12.2923H50.1419V9.75601C50.1419 9.07419 49.8456 8.73511 49.2263 8.73511C49.0862 8.72859 48.9462 8.75244 48.8162 8.80505C48.6861 8.85765 48.5689 8.93776 48.4727 9.03988C48.3765 9.142 48.3035 9.26373 48.2587 9.3967C48.2139 9.52968 48.1984 9.67077 48.2132 9.81029V12.2924H47.3759V8.04961Z" fill="white"/>
    <path d="M53.8252 7.96772C54.7794 7.96772 55.4032 8.41169 55.4851 9.15976H54.6818C54.6046 8.84829 54.3 8.64955 53.8252 8.64955C53.3578 8.64955 53.0026 8.8713 53.0026 9.20255C53.0026 9.45601 53.217 9.6157 53.6771 9.72105L54.3819 9.88437C55.1888 10.0716 55.567 10.4185 55.567 11.0419C55.567 11.8406 54.8226 12.3743 53.8095 12.3743C52.8001 12.3743 52.1422 11.9183 52.0677 11.1666H52.906C52.9782 11.3455 53.1085 11.495 53.2758 11.591C53.4432 11.687 53.638 11.7241 53.8289 11.6961C54.3506 11.6961 54.7214 11.4624 54.7214 11.1233C54.7214 10.8703 54.5227 10.7065 54.0976 10.6053L53.3578 10.4337C52.5508 10.2428 52.1772 9.88069 52.1772 9.24946C52.1772 8.49726 52.8664 7.96772 53.8252 7.96772Z" fill="white"/>
    <path d="M56.6242 7.34018L57.6024 6H58.5842L57.4892 7.34018H56.6242ZM56.7107 8.04961H57.5444V12.2924H56.7107V8.04961Z" fill="white"/>
    <path d="M58.8482 12.717H59.7049C59.7757 13.0248 60.13 13.2236 60.6949 13.2236C61.3924 13.2236 61.8056 12.8923 61.8056 12.3315V11.5172H61.743C61.6116 11.7451 61.4198 11.9323 61.1888 12.0581C60.9577 12.1838 60.6964 12.2433 60.4336 12.2298C59.3506 12.2298 58.6808 11.3925 58.6808 10.1222C58.6808 8.82855 59.358 7.97922 60.4419 7.97922C60.7112 7.96985 60.9779 8.03466 61.2129 8.16659C61.4479 8.29852 61.6421 8.49249 61.7743 8.7273H61.8405V8.04962H62.6429V12.3273C62.6429 13.2976 61.8828 13.9132 60.683 13.9132C59.623 13.9132 58.9375 13.4379 58.8482 12.717ZM61.8212 10.1181C61.8212 9.27292 61.3841 8.73144 60.671 8.73144C59.9506 8.73144 59.5457 9.27294 59.5457 10.1181C59.5457 10.9637 59.9506 11.5052 60.671 11.5052C61.3887 11.5052 61.8212 10.9678 61.8212 10.1181Z" fill="white"/>
    <path d="M67.5541 12.2924H66.7472V11.6184H66.6809C66.5736 11.863 66.3921 12.0676 66.1621 12.2033C65.932 12.3389 65.6651 12.3988 65.3992 12.3743C65.1939 12.3888 64.9881 12.3573 64.7966 12.2819C64.6052 12.2065 64.4331 12.0892 64.2929 11.9386C64.1527 11.788 64.0481 11.608 63.9866 11.4116C63.9251 11.2153 63.9083 11.0077 63.9375 10.8041V8.04961H64.7762V10.586C64.7762 11.2715 65.0523 11.599 65.6678 11.599C65.8106 11.6126 65.9545 11.5941 66.0892 11.5449C66.2238 11.4958 66.3458 11.4172 66.4463 11.3148C66.5467 11.2125 66.623 11.0891 66.6696 10.9535C66.7163 10.8179 66.7321 10.6737 66.7159 10.5312V8.04961H67.5541V12.2924Z" fill="white"/>
    <path d="M72.476 11.1468C72.3622 11.5346 72.1157 11.87 71.7796 12.0944C71.4436 12.3188 71.0393 12.4178 70.6375 12.3743C70.358 12.3816 70.0802 12.3281 69.8235 12.2174C69.5667 12.1066 69.3371 11.9413 69.1507 11.733C68.9642 11.5246 68.8253 11.2782 68.7436 11.0107C68.6619 10.7433 68.6394 10.4613 68.6776 10.1843C68.6404 9.90648 68.6633 9.62388 68.7448 9.35565C68.8263 9.08743 68.9645 8.83984 69.15 8.62966C69.3355 8.41947 69.5639 8.2516 69.82 8.13739C70.076 8.02319 70.3535 7.96532 70.6338 7.96771C71.8144 7.96771 72.5266 8.77425 72.5266 10.1066V10.3987H69.5306V10.4457C69.5175 10.6014 69.537 10.7581 69.588 10.9058C69.639 11.0535 69.7203 11.1889 69.8267 11.3033C69.9331 11.4178 70.0622 11.5087 70.2058 11.5703C70.3494 11.6319 70.5043 11.6629 70.6605 11.6611C70.8608 11.6852 71.0637 11.6491 71.2435 11.5575C71.4232 11.4659 71.5716 11.323 71.6699 11.1468L72.476 11.1468ZM69.5306 9.77947H71.6736C71.6841 9.63708 71.6648 9.49405 71.6168 9.35958C71.5688 9.2251 71.4931 9.10216 71.3948 8.99865C71.2964 8.89514 71.1775 8.81335 71.0457 8.75854C70.9138 8.70372 70.772 8.6771 70.6292 8.68037C70.4844 8.67855 70.3407 8.70574 70.2065 8.76033C70.0724 8.81493 69.9505 8.89583 69.8481 8.99826C69.7457 9.10069 69.6649 9.22258 69.6104 9.35675C69.5558 9.49092 69.5287 9.63465 69.5306 9.77947Z" fill="white"/>
    <path d="M73.6896 6.39335H74.5269V12.2924H73.6896V6.39335Z" fill="white"/>
    <path d="M75.6909 10.1692C75.6642 9.89034 75.6961 9.60902 75.7846 9.34325C75.873 9.07747 76.016 8.83312 76.2044 8.62584C76.3927 8.41857 76.6224 8.25296 76.8785 8.13963C77.1347 8.02631 77.4117 7.96777 77.6918 7.96777C77.9719 7.96777 78.2489 8.02631 78.505 8.13963C78.7611 8.25296 78.9908 8.41857 79.1792 8.62584C79.3676 8.83312 79.5105 9.07747 79.599 9.34325C79.6874 9.60902 79.7193 9.89034 79.6926 10.1692C79.7198 10.4483 79.6883 10.73 79.6001 10.9962C79.5119 11.2624 79.369 11.5072 79.1806 11.7149C78.9921 11.9225 78.7623 12.0885 78.5059 12.2021C78.2495 12.3156 77.9722 12.3743 77.6918 12.3743C77.4113 12.3743 77.134 12.3156 76.8776 12.2021C76.6212 12.0885 76.3914 11.9225 76.203 11.7149C76.0145 11.5072 75.8716 11.2624 75.7834 10.9962C75.6952 10.73 75.6637 10.4483 75.6909 10.1692ZM78.8313 10.1692C78.8313 9.24948 78.4182 8.71166 77.6931 8.71166C76.9653 8.71166 76.5559 9.24948 76.5559 10.1692C76.5559 11.0962 76.9653 11.6299 77.6931 11.6299C78.4182 11.6299 78.8313 11.0925 78.8313 10.1692Z" fill="white"/>
    <path d="M86.7059 11.1468C86.5921 11.5346 86.3457 11.87 86.0096 12.0944C85.6735 12.3188 85.2692 12.4178 84.8675 12.3743C84.5879 12.3816 84.3102 12.3281 84.0534 12.2174C83.7967 12.1066 83.5671 11.9413 83.3806 11.733C83.1941 11.5246 83.0552 11.2782 82.9735 11.0107C82.8919 10.7433 82.8693 10.4613 82.9076 10.1843C82.8703 9.90648 82.8933 9.62388 82.9748 9.35565C83.0562 9.08743 83.1944 8.83984 83.3799 8.62966C83.5654 8.41947 83.7939 8.2516 84.0499 8.13739C84.3059 8.02319 84.5835 7.96532 84.8638 7.96771C86.0443 7.96771 86.7565 8.77425 86.7565 10.1066V10.3987H83.7606V10.4457C83.7474 10.6014 83.767 10.7581 83.818 10.9058C83.869 11.0535 83.9503 11.1889 84.0567 11.3033C84.1631 11.4178 84.2922 11.5087 84.4358 11.5703C84.5794 11.6319 84.7342 11.6629 84.8905 11.6611C85.0908 11.6852 85.2937 11.6491 85.4734 11.5575C85.6532 11.4659 85.8016 11.323 85.8999 11.1468L86.7059 11.1468ZM83.7605 9.77947H85.9036C85.9141 9.63708 85.8948 9.49405 85.8468 9.35958C85.7988 9.2251 85.7232 9.10216 85.6248 8.99865C85.5264 8.89514 85.4075 8.81335 85.2757 8.75854C85.1438 8.70372 85.002 8.6771 84.8592 8.68037C84.7144 8.67854 84.5707 8.70573 84.4365 8.76032C84.3024 8.81491 84.1805 8.89581 84.0781 8.99824C83.9757 9.10068 83.8949 9.22257 83.8403 9.35675C83.7858 9.49092 83.7586 9.63465 83.7605 9.77947Z" fill="white"/>
    <path d="M87.8809 8.04961H88.687V8.72361H88.7495C88.8557 8.48153 89.0347 8.2786 89.2617 8.14311C89.4886 8.00761 89.7522 7.94629 90.0157 7.96771C90.2221 7.95219 90.4294 7.98332 90.6222 8.05878C90.8149 8.13425 90.9883 8.25213 91.1293 8.40368C91.2703 8.55523 91.3755 8.73657 91.4369 8.93427C91.4983 9.13197 91.5145 9.34095 91.4842 9.54574V12.2923H90.6469V9.75601C90.6469 9.07419 90.3506 8.73511 89.7313 8.73511C89.5912 8.72859 89.4512 8.75244 89.3212 8.80505C89.1911 8.85765 89.0739 8.93776 88.9777 9.03988C88.8815 9.142 88.8085 9.26373 88.7637 9.3967C88.7189 9.52968 88.7034 9.67077 88.7183 9.81029V12.2924H87.8809V8.04961Z" fill="white"/>
    <path d="M98.6686 11.1468C98.5549 11.5346 98.3084 11.87 97.9723 12.0944C97.6362 12.3188 97.232 12.4178 96.8302 12.3743C96.5507 12.3816 96.2729 12.3281 96.0161 12.2174C95.7594 12.1066 95.5298 11.9413 95.3433 11.733C95.1569 11.5246 95.018 11.2782 94.9363 11.0107C94.8546 10.7433 94.8321 10.4613 94.8703 10.1843C94.8331 9.90648 94.856 9.62388 94.9375 9.35565C95.019 9.08743 95.1571 8.83984 95.3426 8.62966C95.5281 8.41947 95.7566 8.2516 96.0126 8.13739C96.2686 8.02319 96.5462 7.96532 96.8265 7.96771C98.0071 7.96771 98.7193 8.77425 98.7193 10.1066V10.3987H95.7233V10.4457C95.7102 10.6014 95.7297 10.7581 95.7807 10.9058C95.8317 11.0535 95.913 11.1889 96.0194 11.3033C96.1258 11.4178 96.2549 11.5087 96.3985 11.5703C96.5421 11.6319 96.697 11.6629 96.8532 11.6611C97.0535 11.6852 97.2564 11.6491 97.4362 11.5575C97.6159 11.4659 97.7643 11.323 97.8626 11.1468L98.6686 11.1468ZM95.7233 9.77947H97.8663C97.8768 9.63708 97.8575 9.49405 97.8095 9.35958C97.7614 9.2251 97.6858 9.10216 97.5875 8.99865C97.4891 8.89514 97.3702 8.81335 97.2384 8.75854C97.1065 8.70372 96.9646 8.6771 96.8219 8.68037C96.6771 8.67855 96.5334 8.70574 96.3992 8.76034C96.2651 8.81494 96.1432 8.89584 96.0408 8.99827C95.9384 9.1007 95.8576 9.22259 95.8031 9.35676C95.7485 9.49093 95.7214 9.63466 95.7233 9.77947Z" fill="white"/>
    <path d="M99.8823 6.39335H100.72V12.2924H99.8823V6.39335Z" fill="white"/>
    <path d="M26.5905 17.636C26.6004 16.8694 26.804 16.1177 27.1824 15.451C27.5608 14.7842 28.1018 14.224 28.7549 13.8225C28.34 13.23 27.7926 12.7423 27.1563 12.3983C26.52 12.0543 25.8122 11.8634 25.0892 11.8408C23.5469 11.6789 22.0517 12.7637 21.2658 12.7637C20.4647 12.7637 19.2546 11.8569 17.9516 11.8837C17.1088 11.9109 16.2874 12.156 15.5674 12.5951C14.8475 13.0342 14.2535 13.6522 13.8435 14.3891C12.0672 17.4644 13.3922 21.9841 15.0937 24.47C15.945 25.6873 16.9399 27.047 18.2418 26.9988C19.5157 26.9459 19.9915 26.1864 21.5292 26.1864C23.0527 26.1864 23.4991 26.9988 24.8274 26.9681C26.1944 26.9459 27.0556 25.7454 27.8771 24.5166C28.4887 23.6493 28.9594 22.6907 29.2717 21.6763C28.4775 21.3404 27.7997 20.7782 27.3229 20.0597C26.8462 19.3412 26.5914 18.4983 26.5905 17.636Z" fill="white"/>
    <path d="M24.0816 10.2059C24.827 9.31118 25.1942 8.16113 25.1053 7C23.9666 7.1196 22.9147 7.66383 22.1593 8.52426C21.7899 8.9446 21.5071 9.43361 21.3268 9.96334C21.1466 10.4931 21.0725 11.0531 21.1089 11.6115C21.6784 11.6174 22.2419 11.4939 22.7568 11.2505C23.2718 11.007 23.7247 10.6498 24.0816 10.2059Z" fill="white"/>
</svg>
