<svg width="164" height="16" viewBox="0 0 164 16" fill="none" xmlns="http://www.w3.org/2000/svg">
    <path d="M107.62 0.411072V5.8124H106.29C105.793 3.61399 104.442 1.0385 101.176 1.0385C97.0856 1.0385 96.2449 4.17695 96.2449 8.02495C96.2449 11.7202 97.0034 14.8979 101.075 14.8979C104.256 14.8979 106.404 12.9167 106.404 10.2097H107.804C107.804 13.9274 104.752 16 100.802 16C95.7441 16 90.6012 12.4637 90.6012 8.02539C90.6012 3.65328 95.5764 0 100.389 0C102.896 0 104.265 0.629809 105.088 1.00799C105.441 1.17026 105.693 1.2862 105.891 1.2862C106.562 1.2862 106.709 0.87292 106.736 0.411072H107.62Z" fill="#006998"/>
    <path d="M0 14.9394V16H16.0559V9.85764H14.73V10.5224C14.73 14.0299 11.9204 14.9394 8.39788 14.9394H7.76863V1.6307H10.7225V0.571414H0V1.6307H2.68153V14.9394H0Z" fill="#006998"/>
    <path fill-rule="evenodd" clip-rule="evenodd" d="M36.7749 14.9378L28.8454 0.571414H26.8481L20.0231 13.6291C19.6023 14.492 18.6989 15.0104 17.7433 14.9373H17.2029V15.9995H23.6046V14.9373H22.4463C21.7758 14.9373 21.1916 14.8576 21.1916 14.1336C21.2145 13.898 21.2953 13.6717 21.4267 13.475L22.34 11.6955H29.262L30.9995 14.9378H28.4435V16H38.993V14.9373H36.7758L36.7749 14.9378ZM22.8937 10.6419L25.6845 5.39793H25.912L28.7067 10.6419H22.8937Z" fill="#006998"/>
    <path d="M48.7413 16V14.9394H49.513C50.4392 14.9394 51.3096 14.6996 51.3096 13.3647V3.35607C51.3096 2.30976 50.2878 1.63115 49.2879 1.63115H48.8337V0.571414H56.5292L65.0143 9.68676H65.0755V2.87608C65.0755 2.03554 64.3547 1.6307 63.0284 1.6307H62.2344V0.571414H68.8112V1.6307H68.165C66.8038 1.6307 66.2447 2.25697 66.2447 2.80809V16H64.0475L52.5234 3.57571H52.4631V13.4793C52.4631 14.7278 53.1254 14.9394 54.7907 14.9394H55.306V16H48.7413Z" fill="#006998"/>
    <path fill-rule="evenodd" clip-rule="evenodd" d="M88.3874 14.9378L80.4693 0.571414H78.4674L71.6329 13.6291C71.2152 14.495 70.3095 15.0147 69.3529 14.9373H68.8111V15.9995H75.2339V14.9373H74.0527C73.3875 14.9373 72.8059 14.8576 72.8059 14.1336C72.8304 13.8989 72.9096 13.6733 73.0371 13.475L73.9566 11.6955H80.8886L82.6115 14.9378H80.0557V16H90.6012V14.9373L88.3874 14.9378ZM74.5186 10.6419L77.2984 5.39793H77.5371L80.3196 10.6419H74.5186Z" fill="#006998"/>
    <path d="M110.098 14.9394V16H120.419V14.9394H117.758V1.6307H120.419V0.571414H110.098V1.6307H112.746V14.9394H110.098Z" fill="#006998"/>
    <path fill-rule="evenodd" clip-rule="evenodd" d="M122.713 8.00199C122.713 3.50493 127.745 0 132.718 0C137.663 0 142.783 3.50139 142.783 8.00199C142.783 12.5026 137.662 16 132.718 16C127.745 16 122.713 12.499 122.713 8.00199ZM128.287 8.00267C128.287 11.5261 128.802 14.9657 132.742 14.9657C136.694 14.9657 137.204 11.5491 137.203 8.00267C137.203 4.43195 136.694 1.03961 132.742 1.03961C128.82 1.03961 128.287 4.45932 128.287 8.00267Z" fill="#006998"/>
    <path d="M143.93 14.9394V16H150.485V14.9394H149.968C148.291 14.9394 147.641 14.7278 147.641 13.4793V3.57571H147.695L159.223 16H161.421V2.80809C161.421 2.25697 161.996 1.6307 163.348 1.6307H164V0.571414H157.418V1.6307H158.223C159.543 1.6307 160.263 2.03554 160.263 2.87608V9.68676H160.187L151.707 0.571414H144.012V1.63115H144.467C145.471 1.63115 146.498 2.30976 146.498 3.35607V13.3647C146.498 14.6996 145.628 14.9394 144.706 14.9394H143.93Z" fill="#006998"/>
</svg>
