<svg width="22" height="18" viewBox="0 0 22 18" fill="none" xmlns="http://www.w3.org/2000/svg">
    <path fill-rule="evenodd" clip-rule="evenodd" d="M21.162 2.65601C20.3985 2.9937 19.589 3.21548 18.76 3.31401C19.6337 2.79144 20.2877 1.96902 20.6 1.00001C19.78 1.48801 18.881 1.83001 17.944 2.01501C16.6498 0.630326 14.5863 0.289095 12.9153 1.18346C11.2442 2.07782 10.3836 3.98415 10.818 5.82901C7.45501 5.66045 4.32174 4.072 2.19799 1.45901C1.82628 2.09746 1.63095 2.82323 1.63199 3.56201C1.63199 5.01201 2.36999 6.29301 3.49199 7.04301C2.828 7.0221 2.17862 6.84279 1.59799 6.52001V6.57201C1.5984 8.56304 3.00151 10.2781 4.95299 10.673C4.33661 10.84 3.6903 10.8647 3.06299 10.745C3.61012 12.4492 5.18044 13.6168 6.96999 13.65C5.21793 15.026 2.99073 15.6491 0.778992 15.382C2.69069 16.6114 4.91609 17.2641 7.18899 17.262C14.882 17.262 19.089 10.889 19.089 5.36201C19.089 5.18201 19.084 5.00001 19.076 4.82201C19.8949 4.23017 20.6016 3.49703 21.163 2.65701L21.162 2.65601Z" fill="#272727"/>
</svg>
