<?xml version="1.0" standalone="no"?>
<!DOCTYPE svg PUBLIC "-//W3C//DTD SVG 1.1//EN" "http://www.w3.org/Graphics/SVG/1.1/DTD/svg11.dtd" >
<svg xmlns="http://www.w3.org/2000/svg" xmlns:xlink="http://www.w3.org/1999/xlink" version="1.1">
<metadata></metadata>
<defs>
<font id="suecaslabmedium" horiz-adv-x="1611" >
<font-face units-per-em="2048" ascent="1638" descent="-410" />
<missing-glyph horiz-adv-x="450" />
<glyph horiz-adv-x="0" />
<glyph horiz-adv-x="682" />
<glyph unicode=" "  horiz-adv-x="450" />
<glyph unicode="&#x09;" horiz-adv-x="450" />
<glyph unicode="&#xa0;" horiz-adv-x="450" />
<glyph unicode="!" horiz-adv-x="567" d="M156 111q0 65 30 99t99 34q127 0 127 -133q0 -63 -28.5 -97t-98.5 -34q-129 0 -129 131zM156 1489h258l-62 -1057h-137z" />
<glyph unicode="&#x22;" horiz-adv-x="821" d="M111 1149l32 385h219l5 -29l-123 -381zM473 1149l33 385h217l4 -29l-123 -381z" />
<glyph unicode="#" horiz-adv-x="1196" d="M53 322l33 143h182l121 565h-201l31 144h195l67 321h119l-65 -321h315l68 321h120l-69 -321h186l-29 -144h-184l-119 -565h199l-29 -143h-200l-72 -336h-119l74 336h-318l-71 -336h-117l74 336h-191zM389 465h320l112 565h-317z" />
<glyph unicode="$" horiz-adv-x="1253" d="M82 360h172l29 -200q141 -23 270 -23h22l5 518l-125 27q-66 14 -118 33t-99.5 48.5t-78.5 68.5t-49.5 94.5t-17.5 124.5q0 103 37.5 183.5t105.5 131.5t156.5 79.5t198.5 35.5l2 211h104l-2 -209q213 -3 406 -53v-326h-168l-25 196q-95 22 -215 27l-6 -481l94 -21 q196 -45 290.5 -139.5t94.5 -253.5q0 -106 -36.5 -188.5t-103 -135t-153 -83.5t-194.5 -41l-2 -201h-105l2 194h-18q-238 0 -465 56zM309 1081q0 -48 16.5 -84t47.5 -57.5t62.5 -33.5t72.5 -21l74 -17l6 455q-148 -12 -213.5 -73t-65.5 -169zM680 145q268 37 268 250 q0 106 -65 158.5t-195 79.5h-4z" />
<glyph unicode="%" horiz-adv-x="1505" d="M78 1120q0 96 18 173t54.5 134.5t95.5 89t137 31.5q150 0 220.5 -109t70.5 -298q0 -192 -73.5 -307t-225.5 -115q-150 0 -223.5 108t-73.5 293zM225 1130q0 -305 152 -305q151 0 151 301q0 73 -6.5 126.5t-23 99t-47.5 69t-76 23.5q-38 0 -66 -18t-43.5 -46.5t-25 -71.5 t-12.5 -84t-3 -94zM266 20l856 1493l90 -51l-854 -1489zM831 377q0 96 18 173t54.5 135.5t96 90t137.5 31.5q101 0 167.5 -54t94.5 -143t28 -213q0 -191 -73.5 -305.5t-225.5 -114.5q-150 0 -223.5 107.5t-73.5 292.5zM979 389q0 -305 151 -305q152 0 152 299q0 73 -6.5 127 t-23 99.5t-48 69t-76.5 23.5q-47 0 -78 -25.5t-46 -74t-20 -97.5t-5 -116z" />
<glyph unicode="&#x26;" horiz-adv-x="1808" d="M92 403q0 147 86 246.5t242 171.5q-103 185 -103 330q0 62 24 121t71.5 110.5t131.5 83t193 31.5q158 0 256.5 -83t98.5 -220q0 -78 -29.5 -142t-87 -113.5t-128.5 -87t-167 -71.5q219 -289 461 -454q145 154 164 360h-177v92l199 29l59 160l87 -2v-152h258l-35 -127 h-230q-26 -256 -186 -440q95 -48 188 -72q107 -29 222 -29q45 0 86 5v-154q-72 -10 -117 -10q-274 0 -520 137q-208 -143 -490 -143q-92 0 -172.5 14t-152 46.5t-122.5 80.5t-80.5 120t-29.5 162zM289 426q0 -100 58 -168.5t145.5 -97.5t197.5 -29q171 0 309 80 q-138 94 -272 224t-233 270q-205 -112 -205 -279zM508 1169q0 -122 94 -276l68 25q245 91 245 264q0 76 -49 127t-153 51q-107 0 -156 -55.5t-49 -135.5z" />
<glyph unicode="'" horiz-adv-x="460" d="M111 1149l32 385h219l5 -29l-123 -381z" />
<glyph unicode="(" horiz-adv-x="716" d="M133 604q0 224 67 434t178 360t245 222l61 -78q-72 -59 -134.5 -145t-115.5 -200.5t-84 -266.5t-31 -320q0 -322 102.5 -567.5t260.5 -376.5l-66 -82q-131 73 -240 224t-176 361.5t-67 434.5z" />
<glyph unicode=")" horiz-adv-x="716" d="M33 1542l61 78q134 -72 245 -222t178 -360t67 -434q0 -168 -39 -332.5t-105.5 -296.5t-154.5 -234.5t-185 -156.5l-65 82q158 131 260 376t102 568q0 168 -30.5 320t-83.5 266.5t-115.5 200.5t-134.5 145z" />
<glyph unicode="*" horiz-adv-x="866" d="M86 1280l76 115l203 -111l-7 217h152l-6 -217l207 111l71 -115l-225 -117l152 -209l-121 -71l-154 217l-151 -215l-127 71l153 207z" />
<glyph unicode="+" horiz-adv-x="1185" d="M92 594v164h418v436h166v-436h416v-164h-416v-442h-166v442h-418z" />
<glyph unicode="," horiz-adv-x="501" d="M115 -219l43 444h217l2 -28l-133 -441z" />
<glyph unicode="-" horiz-adv-x="692" d="M84 537v172h522v-172h-522z" />
<glyph unicode="." horiz-adv-x="501" d="M123 111q0 133 127 133t127 -133q0 -63 -28.5 -97t-98.5 -34q-127 0 -127 131z" />
<glyph unicode="/" horiz-adv-x="675" d="M35 -356l420 1872l129 -25l-420 -1872z" />
<glyph unicode="0" horiz-adv-x="1259" d="M90 717q0 175 33 318t99 250.5t172 166.5t245 59q109 0 197 -36t150 -102t103 -159.5t60.5 -207t19.5 -246.5q0 -136 -19.5 -252.5t-62 -215t-105.5 -168t-154 -108.5t-203 -39q-134 0 -237 54t-168 153.5t-97.5 233.5t-32.5 299zM319 731q0 -125 15.5 -226t49.5 -187 t97 -133.5t150 -47.5q311 0 311 592q0 88 -5 160t-17.5 145.5t-36 128.5t-57.5 99t-84.5 67t-114.5 23q-65 0 -115 -24t-83 -70t-55.5 -102t-34 -130t-16 -143t-4.5 -152z" />
<glyph unicode="1" horiz-adv-x="837" d="M100 1257v152l414 80l43 -19v-1325h215v-145h-659v145l225 13v1132z" />
<glyph unicode="2" horiz-adv-x="1140" d="M92 0v162q60 57 150.5 140t149.5 137.5t132.5 126.5t119.5 129t88.5 121.5t62.5 127.5t20 125q0 117 -90.5 186.5t-232.5 69.5q-104 0 -203 -22l-19 -173h-170v302q104 31 198.5 47t221.5 16q82 0 156 -14.5t141 -47t115.5 -80t77 -118t28.5 -156.5q0 -51 -13 -103.5 t-32.5 -99t-55 -100.5t-67 -95.5t-82.5 -95.5t-88 -90t-97.5 -90t-96 -84t-98.5 -83q-43 -36 -64 -54v-10h530l35 174h150l-15 -348h-952z" />
<glyph unicode="3" horiz-adv-x="1173" d="M86 33l35 170q168 -49 350 -49q90 0 158.5 14t123 45t83 86t28.5 133q0 120 -79.5 182t-213.5 62h-180v168h172q126 0 193 63t67 180q0 65 -28.5 113.5t-78 74.5t-107 38t-124.5 12q-52 0 -89.5 -3t-55.5 -6.5t-59 -12.5l-17 -162h-164v291q107 32 196 47.5t220 15.5 q113 0 207 -22.5t167.5 -68t115 -121t41.5 -175.5q0 -127 -73 -218.5t-190 -111.5v-6q137 -23 219 -114.5t82 -221.5q0 -100 -32 -179.5t-86.5 -131t-133 -85.5t-166 -48.5t-190.5 -14.5q-223 0 -391 56z" />
<glyph unicode="4" horiz-adv-x="1226" d="M53 440v164l627 883h246v-891h270l-4 -156h-266v-295h116v-145h-464v145l141 13v282h-666zM229 596h490v674h-8z" />
<glyph unicode="5" horiz-adv-x="1136" d="M78 25l31 170q184 -48 335 -48q183 0 285 80.5t102 229.5q0 132 -98.5 208t-286.5 76q-69 0 -130.5 -13t-111 -32t-54.5 -20l-13 18l64 783h798l-16 -174h-610l-39 -437q92 39 227 39q228 0 357 -119.5t129 -306.5q0 -126 -43 -223t-121.5 -157.5t-184.5 -91t-235 -30.5 q-219 0 -385 48z" />
<glyph unicode="6" horiz-adv-x="1230" d="M88 672q0 814 657 825q89 0 180 -10.5t132 -28.5l-35 -166q-3 1 -22 4.5t-34 6.5t-42 7t-51.5 6.5t-56.5 4.5t-62 2q-113 1 -197.5 -38t-135 -109.5t-76 -160t-28.5 -198.5q161 105 371 105q214 0 335.5 -118t121.5 -325q0 -227 -138 -364.5t-384 -137.5 q-113 0 -203.5 35.5t-151.5 98.5t-102 151.5t-59.5 190t-18.5 219.5zM313 668q-1 -42 0.5 -84t9 -96t21 -101.5t38.5 -94.5t58.5 -80.5t84.5 -54t114 -20.5q142 0 218.5 87.5t76.5 232.5q0 144 -77.5 231.5t-221.5 87.5q-101 0 -195 -37.5t-127 -70.5z" />
<glyph unicode="7" horiz-adv-x="1187" d="M86 1108v371h1008v-142l-609 -1337h-237l635 1317h-619l-22 -209h-156z" />
<glyph unicode="8" horiz-adv-x="1208" d="M82 377q0 132 70.5 234t214.5 143q-252 93 -252 352q0 103 40.5 181.5t111 125.5t157.5 70.5t188 23.5q136 0 245 -41t178 -131t69 -217q0 -133 -70 -226.5t-207 -137.5q141 -29 218.5 -125t80.5 -240q0 -87 -28 -157.5t-76.5 -117.5t-117 -79t-146.5 -46t-168 -14 q-105 0 -194 23t-160.5 69.5t-112.5 126t-41 183.5zM297 401q0 -132 84 -198t227 -66q136 0 218.5 65.5t82.5 194.5t-84.5 206t-216.5 77q-134 0 -222.5 -70t-88.5 -209zM319 1094q0 -47 17 -92.5t51 -84t91.5 -62.5t131.5 -24q129 0 208 73.5t79 193.5q0 122 -77.5 189 t-209.5 67q-131 0 -211 -67.5t-80 -192.5z" />
<glyph unicode="9" horiz-adv-x="1230" d="M88 995q0 234 136 368t384 134q113 0 204 -35.5t152.5 -97.5t102.5 -150.5t59.5 -190.5t18.5 -220q0 -815 -651 -823q-87 -2 -183 9t-137 29l35 170q1 0 26 -5.5t46.5 -9.5t54.5 -9t70 -7.5t73 -2.5q91 -1 163.5 25t121.5 71t82 109.5t49 138t18 159.5q-123 -60 -200 -80 q-84 -22 -168 -22q-219 0 -338 116t-119 324zM299 1018q0 -141 78.5 -226t220.5 -85q101 0 194.5 35t125.5 67q1 46 -0.5 88t-9 97.5t-20 101.5t-37 93t-58 79t-84 52.5t-113.5 20.5q-143 0 -220 -88t-77 -235z" />
<glyph unicode=":" horiz-adv-x="501" d="M123 111q0 133 127 133t127 -133q0 -63 -28.5 -97t-98.5 -34q-127 0 -127 131zM123 903q0 133 127 133t127 -133q0 -63 -28.5 -97t-98.5 -34q-127 0 -127 131z" />
<glyph unicode=";" horiz-adv-x="501" d="M119 -219l43 444h217l2 -28l-133 -441zM123 903q0 133 127 133t127 -133q0 -63 -28.5 -97t-98.5 -34q-127 0 -127 131z" />
<glyph unicode="&#x3c;" horiz-adv-x="1185" d="M143 627v108l813 486l86 -144l-663 -395l663 -395l-84 -144z" />
<glyph unicode="=" horiz-adv-x="1185" d="M102 387v160h979v-160h-979zM102 788v160h979v-160h-979z" />
<glyph unicode="&#x3e;" horiz-adv-x="1185" d="M143 287l664 395l-664 395l86 144l813 -486v-108l-815 -484z" />
<glyph unicode="?" horiz-adv-x="1060" d="M127 1145v295q163 59 381 59q221 0 338 -99.5t117 -275.5q0 -233 -222 -350l-143 -78q-30 -14 -49 -41t-19 -61v-164h-155v215q0 83 44.5 137.5t135.5 98.5l70 34q79 39 111 93.5t32 128.5q0 99 -72.5 159t-201.5 60q-118 0 -193 -23l-18 -188h-156zM334 113 q0 133 127 133q129 0 129 -133q0 -59 -31.5 -95t-97.5 -36q-63 0 -95 36t-32 95z" />
<glyph unicode="@" horiz-adv-x="1961" d="M106 436q0 181 34.5 333.5t108.5 278t184 212.5t266 134.5t350 47.5q377 0 591.5 -190.5t214.5 -526.5q0 -149 -32.5 -279t-94.5 -231.5t-161.5 -160t-225.5 -58.5q-212 0 -239 225q-64 -106 -170.5 -171.5t-190.5 -65.5q-85 0 -144.5 54.5t-85.5 133t-26 170.5 q0 105 18.5 207t61.5 201.5t106 174.5t160.5 121t217.5 46q82 0 168.5 -13t132.5 -32l-78 -736q-2 -12 -2 -59q0 -30 4 -52t16.5 -44t38.5 -33.5t66 -11.5q81 0 150 54.5t113.5 142.5t69.5 196.5t25 218.5q0 303 -188 466t-531 163q-177 0 -317.5 -46.5t-234.5 -128 t-156 -196.5t-89.5 -246t-27.5 -284q0 -196 52.5 -336.5t157 -226t249.5 -125t340 -39.5q177 0 366 34q2 -10 11.5 -40t11.5 -37q-200 -48 -402 -48q-207 0 -367 45t-278.5 139t-181 250t-62.5 369zM692 375q0 -240 121 -240q65 0 141 62t133 168l64 565q-41 14 -102 14 q-69 0 -126 -26t-94.5 -72t-65.5 -102t-42.5 -122t-21.5 -126.5t-7 -120.5z" />
<glyph unicode="A" horiz-adv-x="1658" d="M20 0v145l154 19l543 1333h231l539 -1335l151 -17v-145h-565v145h176l-135 353h-602l-139 -353h194v-145h-547zM569 649h484l-199 518l-37 115h-4l-41 -115z" />
<glyph unicode="B" horiz-adv-x="1409" d="M84 1341v146h694q80 0 150.5 -10.5t138.5 -37t116 -68t77.5 -108t29.5 -151.5q0 -122 -80 -218t-206 -122v-8q145 -25 232 -115t87 -217q0 -114 -39.5 -198.5t-111.5 -134.5t-166 -74.5t-211 -24.5h-701v145l164 13v1183h-174zM489 152h273q323 0 323 272 q0 133 -80.5 198.5t-222.5 65.5h-293v-536zM489 842h302q140 0 206 65t66 195q0 64 -24.5 111t-68.5 72.5t-97 37.5t-117 12h-267v-493z" />
<glyph unicode="C" horiz-adv-x="1388" d="M88 725q0 179 46.5 322t139 247.5t239 160.5t337.5 56q248 0 450 -55v-336h-167l-23 205q-142 25 -248 25q-528 0 -528 -584q0 -333 125 -480t407 -147q112 0 244 27l33 205h170l-13 -330q-224 -61 -454 -61q-758 0 -758 745z" />
<glyph unicode="D" horiz-adv-x="1622" d="M84 1341v146h604q141 0 264 -25t231 -81.5t184.5 -140t120.5 -208t44 -278.5q0 -145 -39 -268t-108 -211.5t-163 -151t-205.5 -93t-234.5 -30.5h-688v145l164 13v1183h-174zM489 152h261q114 0 211.5 37t171 108t115.5 184.5t42 257.5q0 126 -33.5 227.5t-91 169.5 t-137.5 113.5t-170 65.5t-192 20h-177v-1183z" />
<glyph unicode="E" horiz-adv-x="1361" d="M84 1341v146h1165v-369h-164l-20 217h-576v-485h431l8 119h145v-391h-145l-8 122h-431v-548h601l26 221h166l-18 -373h-1170v145l164 13v1183h-174z" />
<glyph unicode="F" horiz-adv-x="1318" d="M84 1341v146h1165v-359h-164l-20 207h-576v-485h431l8 119h145v-391h-145l-8 122h-431v-555h254v-145h-649v145l164 13v1183h-174z" />
<glyph unicode="G" d="M88 713q0 389 212 593.5t597 204.5q287 0 504 -55v-336h-170l-21 201q-154 29 -309 29q-279 0 -423 -160.5t-144 -454.5q0 -301 132 -447.5t411 -146.5q68 0 125.5 5.5t123 17t70.5 12.5v422h-354v150h719v-150l-144 -4v-531q-108 -37 -261.5 -60t-285.5 -23 q-387 0 -584.5 185.5t-197.5 547.5z" />
<glyph unicode="H" horiz-adv-x="1757" d="M84 1341v146h573v-146h-168v-491h775v491h-168v146h567v-146h-168v-1196h182v-145h-575v145l162 11v542h-775v-553h175v-145h-570v145l164 13v1183h-174z" />
<glyph unicode="I" horiz-adv-x="751" d="M84 1341v146h575v-146h-170v-1196h177v-145h-572v145l164 13v1183h-174z" />
<glyph unicode="J" horiz-adv-x="700" d="M-49 -451l12 168q52 -10 123 -10q85 0 129.5 53t44.5 154v1427h-188v146h579v-146h-162v-1378q0 -209 -92 -321.5t-282 -112.5q-108 0 -164 20z" />
<glyph unicode="K" horiz-adv-x="1597" d="M84 1341v146h573v-146h-168v-569l664 569h-156v146h545v-146l-143 -4l-660 -553l668 -632l182 -7v-145h-346l-86 104l-668 641v-600h175v-145h-570v145l164 13v1183h-174z" />
<glyph unicode="L" horiz-adv-x="1388" d="M84 1341v146h590v-146h-185v-1183h601l26 215h176l-16 -373h-1182v145l164 13v1183h-174z" />
<glyph unicode="M" horiz-adv-x="2068" d="M84 1341v146h506l434 -1180h6l449 1180h497v-146h-170v-1196h176v-145h-563v147l166 9v1032l8 90h-8l-485 -1278h-178l-478 1282h-6l6 -88v-1047h177v-147h-527v145l164 13v1183h-174z" />
<glyph unicode="N" horiz-adv-x="1660" d="M84 1341v146h432l668 -1004q6 -7 41 -68.5t37 -66.5h4q0 7 -2 123.5t-2 120.5v749h-172v146h516v-146h-164v-1343h-207l-721 1096q-1 1 -37 62.5t-37 66.5l-6 -2q1 -15 4.5 -121.5t3.5 -116.5v-836h176v-147h-524v145l164 13v1183h-174z" />
<glyph unicode="O" d="M88 731q0 377 188.5 577.5t532.5 200.5q150 0 272 -40.5t203 -109.5t136 -164t79.5 -199.5t24.5 -219.5q0 -178 -43 -322t-129 -250.5t-223 -165t-316 -58.5q-355 0 -540 187.5t-185 563.5zM334 731q0 -291 112.5 -438.5t368.5 -147.5q80 0 146 17.5t113.5 48t83.5 75 t58.5 94.5t36.5 111t19.5 120t5.5 126q0 109 -14 197.5t-48.5 166.5t-88 130t-136 82t-190.5 30q-467 0 -467 -612z" />
<glyph unicode="P" horiz-adv-x="1392" d="M84 1341v146h684q83 0 156 -11t146 -40.5t125 -76t84 -122.5t32 -174q0 -217 -135.5 -334t-407.5 -117h-279v-467h254v-145h-649v145l164 13v1183h-174zM489 762h250q167 0 251.5 71t84.5 226q0 81 -27.5 137.5t-79.5 86.5t-115.5 43t-147.5 13h-216v-577z" />
<glyph unicode="Q" d="M88 731q0 377 188.5 577.5t532.5 200.5q150 0 272 -40.5t203 -109.5t136 -164t79.5 -199.5t24.5 -219.5q0 -232 -73 -407.5t-218 -274.5l213 -291l-227 -57l-181 262q-106 -28 -225 -28q-355 0 -540 187.5t-185 563.5zM334 731q0 -291 112.5 -438.5t368.5 -147.5 q80 0 146 17.5t113.5 48t83.5 75t58.5 94.5t36.5 111t19.5 120t5.5 126q0 109 -14 197.5t-48.5 166.5t-88 130t-136 82t-190.5 30q-467 0 -467 -612z" />
<glyph unicode="R" horiz-adv-x="1562" d="M80 1341v146h778q84 0 151.5 -8t138.5 -34t119 -68.5t78.5 -116.5t30.5 -173q0 -85 -32.5 -155t-84 -113t-109 -67t-112.5 -27v-4q64 -6 116.5 -33.5t85 -68t52 -82.5t25.5 -84l45 -293l192 -13v-147h-292q-59 0 -90.5 33t-34.5 82l-47 329q-15 100 -76.5 155.5 t-192.5 55.5h-338v-510h176v-145h-569v145l164 13v1183h-174zM483 805h258q91 0 161 13t126.5 43.5t86.5 85t30 132.5q0 67 -22 116.5t-55 77t-83 43.5t-95.5 20.5t-103.5 4.5h-303v-536z" />
<glyph unicode="S" horiz-adv-x="1261" d="M80 367h174l29 -205q145 -23 276 -23q402 0 402 262q0 57 -18.5 98.5t-55.5 69t-82 44.5t-109 30l-237 51q-67 14 -120 33t-101.5 49.5t-80 70t-49.5 95.5q-18 54 -18 120v7q0 113 44 199t123 138t181.5 77.5t227.5 25.5q249 0 450 -55v-332h-172l-24 201 q-105 27 -248 27q-193 0 -277 -63t-84 -187q0 -49 17 -85.5t48.5 -58.5t63 -34t72.5 -21l279 -61q199 -45 295 -141.5t96 -258.5q0 -99 -31.5 -177.5t-87 -131.5t-134.5 -88t-170 -50.5t-198 -15.5q-243 0 -473 56z" />
<glyph unicode="T" horiz-adv-x="1490" d="M57 1118l9 369h1359l9 -369h-183l-10 219h-383v-1187h203v-150h-606v147l178 13v1177h-383l-10 -219h-183z" />
<glyph unicode="U" horiz-adv-x="1667" d="M66 1341v146h573v-146h-168v-813q0 -207 98 -294t287 -87q176 0 275.5 92t99.5 283v819h-160v146h528v-146h-163v-833q0 -117 -34.5 -210t-92 -152.5t-135.5 -98.5t-159.5 -55.5t-170.5 -16.5q-133 0 -239.5 28t-190 87.5t-129 162.5t-45.5 243v845h-174z" />
<glyph unicode="V" horiz-adv-x="1599" d="M-4 1341v146h565v-146h-174l387 -1001l39 -119h6l39 123l391 997h-194v146h547v-150l-156 -14l-551 -1329h-211l-534 1331z" />
<glyph unicode="W" horiz-adv-x="2197" d="M27 1341v146h563v-146h-182l213 -903l38 -190h9l37 190l294 1037h230l291 -1041l39 -186h6l39 190l217 903h-187v146h537v-150l-158 -12l-346 -1331h-227l-312 1155l-20 92h-4l-21 -92l-325 -1155h-234l-346 1331z" />
<glyph unicode="X" horiz-adv-x="1478" d="M2 0v145l164 11l438 604l-405 565l-144 12v150h578v-146h-170l321 -467l310 467h-187v146h539v-150l-143 -12l-404 -565l420 -604l156 -13v-143h-601v143l175 9l-332 495l-338 -495l178 -9v-143h-555z" />
<glyph unicode="Y" horiz-adv-x="1406" d="M0 1337v150h567v-146h-170l305 -512l21 -41h2l20 41l302 512h-177v146h537v-150l-158 -12l-428 -692v-488h180v-145h-581v145l170 13v471l-436 696z" />
<glyph unicode="Z" horiz-adv-x="1298" d="M84 0v109l848 1220h-653l-27 -207h-162v365h1120v-119l-841 -1210h673l27 204h168l-14 -362h-1139z" />
<glyph unicode="[" horiz-adv-x="671" d="M164 -389v1937h454v-123h-276v-1693h276v-121h-454z" />
<glyph unicode="\" horiz-adv-x="675" d="M78 1491l131 25l420 -1872l-129 -25z" />
<glyph unicode="]" horiz-adv-x="671" d="M53 -268h275v1693h-275v123h455v-1937h-455v121z" />
<glyph unicode="^" horiz-adv-x="1150" d="M115 416l407 796h105l409 -794l-139 -68l-324 635l-323 -635z" />
<glyph unicode="_" horiz-adv-x="1024" d="M0 -160h1024v-110h-1024v110z" />
<glyph unicode="`" horiz-adv-x="612" d="M115 1487l196 57l209 -325l-135 -23z" />
<glyph unicode="a" horiz-adv-x="1189" d="M98 270q0 357 661 357h11v104q0 86 -52.5 136.5t-156.5 50.5q-164 0 -366 -72l-48 151q198 78 449 78q182 0 282.5 -85.5t100.5 -252.5v-473l10 -125h144v-129l-271 -20h-53l-14 131q-67 -68 -170.5 -106t-204.5 -38q-158 0 -240 82.5t-82 210.5zM313 289 q0 -81 51 -124.5t134 -43.5q154 0 272 104v283h-31q-426 0 -426 -219z" />
<glyph unicode="b" horiz-adv-x="1273" d="M47 1419v142l342 22l19 -16v-586q145 100 319 100q227 0 344 -140t117 -380q0 -180 -74.5 -313.5t-203 -202t-294.5 -68.5q-235 0 -419 52v1390h-150zM408 160q110 -31 215 -31q87 0 154.5 33.5t108 91.5t61 130.5t20.5 156.5q0 177 -77.5 281t-227.5 104 q-149 0 -254 -72v-694z" />
<glyph unicode="c" horiz-adv-x="1079" d="M86 522q0 259 149 409t418 150q199 0 324 -43l8 -280h-151l-17 151q-80 19 -168 19q-163 0 -255.5 -105.5t-92.5 -285.5q0 -192 98 -296t273 -104q117 0 289 41l28 -145q-177 -60 -344 -60q-262 0 -410.5 139.5t-148.5 409.5z" />
<glyph unicode="d" horiz-adv-x="1304" d="M88 508q0 94 21.5 179t66 156.5t107.5 123.5t150 81t190 29q149 0 254 -37v379l-158 6v144l350 14l18 -16v-1432h148v-137l-303 -21l-14 13l-23 110q-60 -54 -152 -89.5t-186 -35.5q-124 0 -216 40.5t-146.5 114t-80.5 167.5t-26 211zM307 532q0 -88 13.5 -154.5 t47.5 -124t99 -88t160 -30.5q140 0 250 80v682q-104 37 -230 37q-164 0 -252 -110.5t-88 -291.5z" />
<glyph unicode="e" horiz-adv-x="1128" d="M86 524q0 246 139 401.5t373 155.5q108 0 195 -37.5t142 -101t84.5 -145.5t29.5 -174v-105h-744q2 -173 95.5 -275t271.5 -102q140 0 309 45l39 -147q-83 -30 -185.5 -48t-189.5 -18q-277 0 -418 146.5t-141 404.5zM309 635l543 8q-2 139 -69.5 217t-192.5 78 q-111 0 -191 -78.5t-90 -224.5z" />
<glyph unicode="f" horiz-adv-x="759" d="M78 915v144h145v88q0 450 406 450q129 0 205 -26l-37 -150q-69 21 -148 21q-121 0 -168 -69t-47 -210v-104h252v-144h-252v-776h191v-139h-525v139l123 8v768h-145z" />
<glyph unicode="g" horiz-adv-x="1167" d="M63 -172q0 70 53.5 137.5t141.5 102.5q-82 48 -82 139q0 53 34 106.5t101 92.5q-95 44 -142.5 125.5t-47.5 179.5q0 166 120.5 269t315.5 103q148 0 260 -53l311 29l-12 -160l-180 16q33 -33 52.5 -88.5t19.5 -109.5q0 -158 -111.5 -258.5t-316.5 -100.5q-58 0 -140 9 q-69 -40 -69 -93q0 -69 94 -75l328 -23q321 -20 321 -242q0 -118 -75.5 -207t-204.5 -134.5t-293 -45.5q-240 0 -359 77t-119 204zM252 -129q0 -33 7.5 -58.5t28.5 -50t55 -40.5t88.5 -25.5t127.5 -9.5q161 0 256.5 57t95.5 152q0 50 -38.5 79t-143.5 35l-260 17 q-42 2 -98 10q-56 -30 -87.5 -75.5t-31.5 -90.5zM326 721q0 -98 57 -165t186 -67q122 0 182 66.5t60 163.5q0 101 -58.5 164t-183.5 63q-65 0 -114 -19.5t-76 -52.5t-40 -71.5t-13 -81.5z" />
<glyph unicode="h" horiz-adv-x="1320" d="M63 1425v144l345 22l18 -18v-625q169 127 346 127q171 0 259.5 -95t88.5 -251v-590h131v-139h-463v139l121 11v546q0 54 -14.5 95.5t-37.5 66t-54.5 40t-61 21t-61.5 5.5q-130 0 -254 -88v-697h135v-139h-469v139l123 8v1278h-152z" />
<glyph unicode="i" horiz-adv-x="636" d="M80 913v140l326 16l22 -22v-908h137v-139h-471v139l125 8v758zM195 1366q0 66 29 99.5t98 33.5q68 0 97.5 -34.5t29.5 -98.5q0 -129 -127 -129t-127 129z" />
<glyph unicode="j" horiz-adv-x="616" d="M-53 -434l18 162q58 -15 119 -15q143 0 143 195v997l-139 8v140l328 16l20 -22v-1106q0 -61 -8 -114t-31 -107t-59 -91.5t-97 -61.5t-141 -24q-79 0 -153 23zM201 1366q0 66 30 99.5t99 33.5q129 0 129 -133q0 -129 -129 -129t-129 129z" />
<glyph unicode="k" horiz-adv-x="1218" d="M63 1419v142l345 22l18 -16v-1428h135v-139h-469v139l123 8v1272h-152zM440 567v6l391 349h-129v139h465v-141l-137 -11l-371 -315l381 -449l148 -6v-139h-299l-60 90z" />
<glyph unicode="l" horiz-adv-x="632" d="M63 1419v142l345 22l18 -16v-1428h135v-139h-469v139l123 8v1272h-152z" />
<glyph unicode="m" horiz-adv-x="2017" d="M80 913v140l305 16l16 -14l15 -115q179 135 360 135q216 0 303 -157q183 157 391 157q171 0 259 -95t88 -251v-590h131v-139h-461v139l121 11v546q0 54 -15 95.5t-38 66t-55 40t-61 21t-61 5.5q-75 0 -146.5 -28t-121.5 -75q12 -53 12 -112v-570h131v-139h-462v139 l122 11v557q-2 52 -17.5 91.5t-38.5 63t-54.5 38t-59.5 19.5t-59 5q-132 0 -256 -88v-697h135v-139h-469v139l125 8v758z" />
<glyph unicode="n" horiz-adv-x="1323" d="M80 913v140l305 16l16 -14l15 -115q179 135 360 135q169 0 257.5 -95t88.5 -251v-590h131v-139h-462v139l122 8v549q0 67 -21.5 114.5t-58 70.5t-72.5 33t-77 10q-132 0 -256 -88v-697h135v-139h-469v139l125 8v758z" />
<glyph unicode="o" horiz-adv-x="1218" d="M86 508q0 126 31.5 229t94.5 180.5t164 120.5t232 43q248 0 386.5 -144t138.5 -390q0 -266 -136.5 -420t-398.5 -154q-247 0 -379.5 143t-132.5 392zM307 526q0 -196 71 -299.5t228 -103.5q163 0 235 101.5t72 297.5q0 410 -311 410q-295 0 -295 -406z" />
<glyph unicode="p" horiz-adv-x="1304" d="M80 913v140l305 16l16 -14l13 -86q67 47 157.5 77.5t184.5 30.5q99 0 178 -28t131.5 -75.5t87.5 -113.5t50.5 -140.5t15.5 -158.5q0 -125 -34.5 -231t-100 -185t-168 -123.5t-230.5 -44.5q-63 0 -138.5 15.5t-119.5 40.5v-330h193v-141h-515v141l113 10v1192zM428 190 q102 -61 244 -61q110 0 185.5 55.5t108.5 143t33 200.5q0 394 -317 394q-53 0 -103 -12t-78 -24.5t-73 -35.5v-660z" />
<glyph unicode="q" horiz-adv-x="1253" d="M88 494q0 262 144 422.5t391 160.5q187 0 286 -51q1 0 15.5 27.5t15.5 27.5h145v-1368l111 -10v-141h-514v141h195v373q-58 -44 -142.5 -72.5t-177.5 -28.5q-118 0 -208.5 38.5t-147 108.5t-85 163.5t-28.5 208.5zM309 526q0 -191 74 -292t244 -101q114 0 250 84v678 q-94 35 -218 35q-167 0 -258.5 -110t-91.5 -294z" />
<glyph unicode="r" horiz-adv-x="999" d="M80 913v140l305 16l16 -14l15 -129q77 63 192.5 102t220.5 39q72 0 111 -8v-273h-190v129q-169 0 -322 -110v-666h186v-139h-520v139l125 8v758z" />
<glyph unicode="s" horiz-adv-x="1007" d="M94 289h185l16 -150q90 -22 178 -22q101 0 172.5 39t71.5 118q0 70 -50 108.5t-153 70.5l-108 32q-143 42 -216 107.5t-73 183.5q0 61 23 114t71 96.5t132 69t196 25.5q78 0 176 -14.5t162 -42.5l4 -238h-170l-13 132q-99 24 -176 24q-91 0 -150 -37t-59 -102 q0 -34 16 -60t49 -45.5t65 -32t83 -28.5l86 -25q152 -44 231 -123.5t79 -189.5q0 -80 -36.5 -143.5t-99.5 -102.5t-143.5 -59.5t-173.5 -20.5q-178 0 -360 54z" />
<glyph unicode="t" horiz-adv-x="800" d="M55 911v131l158 17l61 241h148v-247h309v-142h-309v-600q0 -87 40.5 -126.5t123.5 -39.5q72 0 145 15l17 -152q-109 -28 -222 -28q-153 0 -234 81.5t-81 231.5v618h-156z" />
<glyph unicode="u" horiz-adv-x="1282" d="M51 915v138l324 16l18 -14l-2 -703q0 -67 21.5 -114.5t57.5 -71t73 -33.5t78 -10q124 0 256 90l2 702h-136v138l326 14l21 -14l-5 -903l136 -7v-139l-301 -14l-17 18l-14 103q-176 -136 -361 -136q-171 0 -259.5 93.5t-88.5 248.5l4 598h-133z" />
<glyph unicode="v" horiz-adv-x="1175" d="M0 920v141h451v-141h-121l254 -644l18 -65h6l19 65l254 644h-127v141h422v-141l-113 -13l-389 -913h-178l-385 917z" />
<glyph unicode="w" horiz-adv-x="1783" d="M25 920v141h438v-141l-127 -5l168 -581l24 -117h7l24 113l268 733h158l272 -735l27 -121h4l23 119l168 589l-129 5v141h409v-141l-108 -15l-275 -911h-186l-287 821h-4l-287 -821h-196l-283 915z" />
<glyph unicode="x" horiz-adv-x="1220" d="M10 0v141l121 15l340 385l-313 370l-129 9v141h493v-141h-121l236 -293l237 293h-112v141h430v-141l-115 -15l-325 -370l329 -385l127 -9v-141h-499v141h129l-260 312l-248 -312h133v-141h-453z" />
<glyph unicode="y" horiz-adv-x="1169" d="M0 920v141h451v-141h-121l250 -639l18 -64h4l21 62l249 641h-124v141h421v-141l-110 -13l-350 -829q-30 -71 -52.5 -120t-56 -110.5t-63.5 -102.5t-71.5 -83.5t-84.5 -67.5t-98 -41t-117 -16q-51 0 -98 8l8 172q41 -8 110 -8q53 4 97 26t78 60.5t57 76t47 87.5l24 53 l-378 899z" />
<glyph unicode="z" horiz-adv-x="1048" d="M82 0v100l596 811h-428l-21 -153h-147l4 303h862v-109l-592 -800h424l35 155h143l-16 -307h-860z" />
<glyph unicode="{" horiz-adv-x="671" d="M68 578v131q39 7 67.5 36.5t28.5 85.5v572q0 70 36.5 106t102.5 39h315v-123h-227q-49 0 -49 -41v-559q0 -55 -34.5 -114.5t-78.5 -69.5v-10q57 -18 85 -72t28 -160v-626q0 -24 10.5 -32.5t34.5 -8.5h231v-121h-305q-67 0 -108 35t-41 110v678q0 128 -96 144z" />
<glyph unicode="|" horiz-adv-x="714" d="M279 -209v1712h137v-1712h-137z" />
<glyph unicode="}" horiz-adv-x="671" d="M53 -268h232q23 0 33 8.5t10 32.5v626q0 106 28.5 160t85.5 72v10q-44 10 -79 69.5t-35 114.5v559q0 24 -11.5 32.5t-35.5 8.5h-228v123h316q66 -3 102.5 -39t36.5 -106v-572q0 -56 28.5 -85.5t67.5 -36.5v-131q-96 -16 -96 -144v-678q0 -75 -41.5 -110t-108.5 -35h-305 v121z" />
<glyph unicode="~" horiz-adv-x="1146" d="M115 479q6 85 33.5 149.5t67.5 99t80.5 51t80.5 16.5q60 0 120.5 -28t102 -61.5t91.5 -61.5t91 -28q44 0 72.5 33.5t32.5 132.5h145q-1 -72 -18 -128.5t-43 -90.5t-61.5 -56.5t-69.5 -31t-70 -8.5q-49 0 -96 18.5t-84.5 45.5t-73 54t-74 45.5t-73.5 18.5q-99 0 -111 -170 h-143z" />
<glyph unicode="&#xa1;" horiz-adv-x="567" d="M154 -414l61 1057h137l60 -1057h-258zM156 965q0 129 127 129q129 0 129 -129q0 -66 -30 -101t-99 -35q-127 0 -127 136z" />
<glyph unicode="&#xa2;" horiz-adv-x="1079" d="M86 588q0 241 130 388t366 167l4 180h96l-2 -176q178 -4 297 -43l8 -281h-151l-17 152q-63 15 -139 18l-12 -790h6q117 0 289 41l28 -146q-163 -56 -325 -59l-2 -248h-97l2 250q-227 21 -354 159.5t-127 387.5zM301 602q0 -161 69.5 -261t198.5 -128l11 774 q-132 -22 -205.5 -124t-73.5 -261z" />
<glyph unicode="&#xa3;" horiz-adv-x="1167" d="M96 0v168h228q55 102 55 244q0 119 -49 297h-230v118h199q-39 146 -39 273q0 192 118 311t327 119t376 -51v-265h-168l-16 148q-77 20 -197 20q-79 0 -133 -39.5t-76 -98.5t-22 -132q0 -101 47 -285h387v-118h-356q43 -172 43 -275q0 -150 -51 -266h559l-27 -168h-975z " />
<glyph unicode="&#xa4;" horiz-adv-x="1079" d="M113 395l106 107q-74 104 -74 233q0 128 74 232l-106 108l90 84l104 -104q97 73 234 73q133 0 231 -73l107 104l88 -86l-105 -106q74 -99 74 -232q0 -131 -76 -233l107 -107l-90 -86l-107 105q-104 -74 -229 -74q-124 0 -234 76l-106 -109zM291 735q0 -114 69 -193 t181 -79q118 0 184 78t66 194q0 114 -68.5 194.5t-181.5 80.5q-118 0 -184 -80t-66 -195z" />
<glyph unicode="&#xa5;" horiz-adv-x="1406" d="M0 1337v150h567v-146h-170l305 -512l21 -41h2l20 41l302 512h-177v146h537v-150l-158 -12l-389 -629h324v-137h-363v-414h180v-145h-581v145l170 13v401h-377v137h334l-393 629z" />
<glyph unicode="&#xa7;" horiz-adv-x="1095" d="M129 649q0 176 201 281q-89 33 -133.5 93t-44.5 140q0 94 35 163t96 108t133.5 57t158.5 18q210 0 347 -39q-11 -63 -41 -163q-189 39 -301 39q-35 0 -63 -3t-57 -12.5t-48 -25.5t-31 -43t-12 -64q0 -69 27.5 -99t95.5 -50l192 -45q145 -38 219 -107.5t74 -196.5 q0 -84 -47.5 -158.5t-120.5 -121.5q162 -73 162 -236q0 -89 -36.5 -158t-100 -110t-143.5 -61.5t-173 -20.5q-235 0 -387 49l39 160q203 -43 322 -43q55 0 95 5.5t78 21.5t58 48.5t20 80.5q0 69 -35.5 108t-123.5 60l-189 45q-266 63 -266 280zM328 682q0 -122 204 -162 l109 -20q52 23 90.5 68t38.5 112q0 70 -54.5 109t-205.5 69q-67 -11 -124.5 -58.5t-57.5 -117.5z" />
<glyph unicode="&#xa8;" horiz-adv-x="901" d="M121 1366q0 127 121 127q120 0 120 -127q0 -56 -29.5 -89.5t-90.5 -33.5q-60 0 -90.5 34t-30.5 89zM537 1366q0 127 120 127q121 0 121 -127q0 -56 -29.5 -89.5t-91.5 -33.5q-60 0 -90 33.5t-30 89.5z" />
<glyph unicode="&#xa9;" horiz-adv-x="1810" d="M115 750q0 107 24.5 209t83.5 202.5t146.5 175.5t226 121.5t309.5 46.5q131 0 241.5 -24t190.5 -64.5t143 -98.5t103 -123t66 -141t36.5 -148.5t10.5 -149.5q0 -87 -8.5 -165.5t-31.5 -164t-59 -156.5t-95 -136.5t-136 -111t-186 -72t-240 -26.5q-149 0 -271 26.5 t-206.5 70.5t-148 110t-101 135.5t-60 155.5t-30.5 163t-8 165zM233 721q0 -60 4 -112t14.5 -110.5t28 -108.5t46.5 -100.5t67.5 -90.5t93 -75.5t121 -59t153.5 -37t189 -13.5q114 0 207 23.5t157 62.5t111.5 97t75 117.5t44.5 134t22.5 138t5.5 136.5q0 104 -15.5 195 t-60 185.5t-115.5 161.5t-191 109.5t-278 42.5q-122 0 -222 -24.5t-169 -65t-122 -98t-84 -118t-50.5 -132t-26 -132.5t-6.5 -126zM389 719q0 250 146 394t409 144q204 0 318 -40l6 -271h-146l-16 148q-76 18 -164 18q-161 0 -252.5 -103.5t-91.5 -277.5q0 -186 96 -286.5 t267 -100.5q116 0 284 41l27 -141q-166 -56 -336 -56q-256 0 -401.5 134t-145.5 397z" />
<glyph unicode="&#xaa;" horiz-adv-x="798" d="M109 1038q0 57 28.5 96.5t83 61.5t122.5 31.5t159 9.5v66q0 104 -121 104q-85 0 -213 -39l-31 92q105 45 269 45q109 0 170 -49.5t61 -150.5v-263l6 -75h82v-82l-166 -11h-33l-8 76q-40 -40 -100.5 -63t-120.5 -23q-92 0 -140 49t-48 125zM162 651v101h497v-101h-497z M246 1051q0 -46 29 -71.5t75 -25.5q71 0 152 52v168q-256 3 -256 -123z" />
<glyph unicode="&#xab;" horiz-adv-x="1144" d="M86 596v125l385 321l98 -104l-268 -276l270 -302l-96 -92zM573 596v125l388 321l98 -104l-268 -276l270 -302l-96 -92z" />
<glyph unicode="&#xac;" horiz-adv-x="1267" d="M104 606v162h1022v-481h-151v319h-871z" />
<glyph unicode="&#xad;" horiz-adv-x="692" d="M84 537v172h522v-172h-522z" />
<glyph unicode="&#xae;" horiz-adv-x="989" d="M86 1112q0 54 12.5 106.5t42.5 104t75 90t115.5 62.5t157.5 24q89 0 161 -23t118.5 -60.5t77.5 -88t44 -102.5t13 -107q0 -62 -11 -119t-40 -114.5t-72.5 -99.5t-114 -68.5t-159.5 -26.5q-99 0 -175 25.5t-121 66.5t-74 98t-39.5 113t-10.5 119zM166 1098q0 -53 7.5 -97 t29.5 -90t58 -77.5t98 -51.5t145 -20q74 0 132 21.5t92.5 55.5t56.5 80.5t30 90.5t8 92q0 61 -15.5 115t-50.5 104t-102.5 79.5t-160.5 29.5q-81 0 -142.5 -22.5t-95.5 -56t-55.5 -80.5t-28 -87.5t-6.5 -85.5zM283 1274v55h241q156 0 156 -123q0 -47 -28 -75t-66 -33v-2 q35 -4 56 -26t26 -50l8 -78l51 -6v-53h-94q-42 0 -45 43l-8 96q-7 51 -66 51h-92v-137h49v-53h-186v53l49 6v332h-51zM422 1128h72q98 0 98 74q0 72 -88 72h-82v-146z" />
<glyph unicode="&#xaf;" horiz-adv-x="837" d="M102 1280v147h631v-147h-631z" />
<glyph unicode="&#xb0;" horiz-adv-x="628" d="M98 1325q0 89 61 153t154 64q103 0 160 -58t57 -145q0 -95 -61.5 -159t-155.5 -64q-104 0 -159.5 63t-55.5 146zM199 1333q0 -52 29.5 -91.5t82.5 -39.5q60 0 89.5 38t29.5 93q0 49 -29.5 86t-87.5 37q-53 0 -83.5 -36.5t-30.5 -86.5z" />
<glyph unicode="&#xb1;" horiz-adv-x="1185" d="M92 772v164h418v436h166v-436h416v-164h-416v-442h-166v442h-418zM102 -8v164h981v-164h-981z" />
<glyph unicode="&#xb4;" horiz-adv-x="612" d="M115 1219l209 325l196 -57l-268 -291z" />
<glyph unicode="&#xb5;" horiz-adv-x="1259" d="M178 59v1002h211v-723q0 -88 52.5 -144.5t152.5 -56.5q147 0 280 115v809h213v-852q0 -72 52 -72q24 0 49 6v-135q-44 -20 -113 -20q-122 0 -155 149q-31 -63 -118.5 -111.5t-185.5 -48.5q-97 0 -168.5 41.5t-91.5 110.5h-10v-27q1 -91 9 -169.5t14.5 -114t25 -111.5 t23.5 -98l-207 -23q-29 150 -33 473z" />
<glyph unicode="&#xb6;" horiz-adv-x="1310" d="M100 932q0 555 584 555h561v-144h-174v-1755h-145v1755h-213v-1755h-152v869q-216 1 -338.5 128t-122.5 347z" />
<glyph unicode="&#xb7;" horiz-adv-x="501" d="M123 696q0 133 127 133t127 -133q0 -63 -28.5 -97t-98.5 -34q-127 0 -127 131z" />
<glyph unicode="&#xb8;" horiz-adv-x="700" d="M115 -434l16 98q68 -14 158 -14q139 0 139 88q0 81 -199 96l-6 8l74 172h100l-39 -106q103 -8 165.5 -51t62.5 -115q0 -96 -77.5 -146.5t-199.5 -50.5q-117 0 -194 21z" />
<glyph unicode="&#xba;" horiz-adv-x="798" d="M92 1180q0 149 77.5 239t227.5 90q144 0 226 -83.5t82 -225.5q0 -153 -81.5 -241.5t-234.5 -88.5q-142 0 -219.5 83.5t-77.5 226.5zM150 651v101h499v-101h-499zM231 1190q0 -112 39 -168.5t125 -56.5q91 0 129.5 55.5t38.5 167.5q0 227 -168 227q-164 0 -164 -225z" />
<glyph unicode="&#xbb;" horiz-adv-x="1144" d="M86 358l270 304l-268 278l98 102l385 -323v-123l-389 -328zM573 358l273 304l-268 278l98 102l385 -323v-123l-389 -328z" />
<glyph unicode="&#xbf;" horiz-adv-x="1060" d="M119 -43q0 231 221 350l143 76q70 38 70 104v164h156v-215q0 -83 -45 -136.5t-136 -98.5l-71 -35q-144 -71 -144 -221q0 -100 73.5 -160.5t203.5 -60.5q121 0 192 24l19 186h155v-292q-166 -60 -383 -60q-220 0 -337 99.5t-117 275.5zM494 969q0 59 31.5 95t97.5 36 q63 0 94 -36t31 -95q0 -133 -125 -133q-129 0 -129 133z" />
<glyph unicode="&#xc0;" horiz-adv-x="1658" d="M20 0v145l154 19l543 1333h231l539 -1335l151 -17v-145h-565v145h176l-135 353h-602l-139 -353h194v-145h-547zM444 1782l109 176l377 -262l-62 -92zM569 649h484l-199 518l-37 115h-4l-41 -115z" />
<glyph unicode="&#xc1;" horiz-adv-x="1658" d="M20 0v145l154 19l543 1333h231l539 -1335l151 -17v-145h-565v145h176l-135 353h-602l-139 -353h194v-145h-547zM569 649h484l-199 518l-37 115h-4l-41 -115zM770 1696l375 262l110 -176l-426 -178z" />
<glyph unicode="&#xc2;" horiz-adv-x="1662" d="M20 0v145l154 19l543 1333h231l539 -1335l151 -17v-145h-565v145h176l-135 353h-602l-139 -353h194v-145h-547zM508 1675l246 254h141l250 -254l-86 -82l-234 170l-231 -170zM569 649h484l-199 518l-37 115h-4l-41 -115z" />
<glyph unicode="&#xc3;" horiz-adv-x="1658" d="M20 0v145l154 19l543 1333h231l539 -1335l151 -17v-145h-565v145h176l-135 353h-602l-139 -353h194v-145h-547zM444 1634q21 110 76.5 175t138.5 65q65 0 161 -38t130 -38q38 0 55.5 24.5t28.5 80.5l146 -29q-13 -98 -69 -168t-142 -70q-58 0 -160 41t-141 41 q-50 0 -78 -106zM569 649h484l-199 518l-37 115h-4l-41 -115z" />
<glyph unicode="&#xc4;" horiz-adv-x="1658" d="M20 0v145l154 19l543 1333h231l539 -1335l151 -17v-145h-565v145h176l-135 353h-602l-139 -353h194v-145h-547zM485 1741q0 127 121 127t121 -127q0 -125 -121 -125q-59 0 -90 34.5t-31 90.5zM569 649h484l-199 518l-37 115h-4l-41 -115zM926 1741q0 127 121 127 q120 0 120 -127q0 -125 -120 -125q-59 0 -90 34.5t-31 90.5z" />
<glyph unicode="&#xc5;" horiz-adv-x="1662" d="M20 0v145l154 19l543 1333h231l539 -1335l151 -17v-145h-565v145h176l-135 353h-602l-139 -353h194v-145h-547zM569 649h484l-199 518l-37 115h-4l-41 -115zM633 1780q0 82 52 140t142 58q94 0 145.5 -54t51.5 -132q0 -83 -55 -138t-142 -55q-93 0 -143.5 53.5 t-50.5 127.5zM729 1788q0 -51 26 -83t72 -32q101 0 101 113q0 48 -23 82.5t-78 34.5q-49 0 -73.5 -33.5t-24.5 -81.5z" />
<glyph unicode="&#xc6;" horiz-adv-x="2146" d="M20 0v145l150 21l694 1173h-188v148h1358v-369h-164l-23 217h-577l20 -485h414l8 119h146v-391h-146l-8 122h-401l16 -548h557l25 221h163l-16 -373h-1114v145l156 7l-11 350h-495l-215 -357h186v-145h-535zM659 651h406l-25 645h-4z" />
<glyph unicode="&#xc7;" horiz-adv-x="1388" d="M88 725q0 179 46.5 322t139 247.5t239 160.5t337.5 56q248 0 450 -55v-336h-167l-23 205q-142 25 -248 25q-528 0 -528 -584q0 -333 125 -480t407 -147q112 0 244 27l33 205h170l-13 -330q-216 -58 -434 -61l-26 -72q103 -8 165 -51t62 -115q0 -96 -77 -146.5t-199 -50.5 q-118 0 -195 21l16 98q68 -14 158 -14q139 0 139 88q0 81 -198 96l-6 8l59 140q-343 20 -509.5 206.5t-166.5 536.5z" />
<glyph unicode="&#xc8;" horiz-adv-x="1361" d="M84 1341v146h1165v-369h-164l-20 217h-576v-485h431l8 119h145v-391h-145l-8 122h-431v-548h601l26 221h166l-18 -373h-1170v145l164 13v1183h-174zM385 1782l109 176l376 -262l-61 -92z" />
<glyph unicode="&#xc9;" horiz-adv-x="1361" d="M84 1341v146h1165v-369h-164l-20 217h-576v-485h431l8 119h145v-391h-145l-8 122h-431v-548h601l26 221h166l-18 -373h-1170v145l164 13v1183h-174zM610 1696l375 262l111 -176l-426 -178z" />
<glyph unicode="&#xca;" horiz-adv-x="1361" d="M84 1341v146h1165v-369h-164l-20 217h-576v-485h431l8 119h145v-391h-145l-8 122h-431v-548h601l26 221h166l-18 -373h-1170v145l164 13v1183h-174zM418 1675l246 254h141l250 -254l-86 -82l-234 170l-231 -170z" />
<glyph unicode="&#xcb;" horiz-adv-x="1361" d="M84 1341v146h1165v-369h-164l-20 217h-576v-485h431l8 119h145v-391h-145l-8 122h-431v-548h601l26 221h166l-18 -373h-1170v145l164 13v1183h-174zM385 1741q0 127 121 127t121 -127q0 -125 -121 -125q-59 0 -90 34.5t-31 90.5zM825 1741q0 127 121 127t121 -127 q0 -125 -121 -125q-59 0 -90 34.5t-31 90.5z" />
<glyph unicode="&#xcc;" horiz-adv-x="751" d="M18 1782l109 176l377 -262l-62 -92zM84 1341v146h575v-146h-170v-1196h177v-145h-572v145l164 13v1183h-174z" />
<glyph unicode="&#xcd;" horiz-adv-x="751" d="M84 1341v146h575v-146h-170v-1196h177v-145h-572v145l164 13v1183h-174zM264 1696l375 262l111 -176l-426 -178z" />
<glyph unicode="&#xce;" horiz-adv-x="751" d="M68 1675l245 254h142l250 -254l-87 -82l-233 170l-231 -170zM84 1341v146h575v-146h-170v-1196h177v-145h-572v145l164 13v1183h-174z" />
<glyph unicode="&#xcf;" horiz-adv-x="751" d="M35 1741q0 127 121 127q120 0 120 -127q0 -125 -120 -125q-59 0 -90 34.5t-31 90.5zM84 1341v146h575v-146h-170v-1196h177v-145h-572v145l164 13v1183h-174zM475 1741q0 127 121 127t121 -127q0 -125 -121 -125q-59 0 -90 34.5t-31 90.5z" />
<glyph unicode="&#xd0;" horiz-adv-x="1624" d="M84 1341v146h604q141 0 264 -25t231 -81.5t184.5 -140t120.5 -208t44 -278.5q0 -145 -39 -268t-108 -211.5t-163 -151t-205.5 -93t-234.5 -30.5h-688v145l164 13v547h-129v135h129v501h-174zM489 152h261q114 0 211.5 37t171 108t115.5 184.5t42 257.5q0 126 -33.5 227.5 t-91 169.5t-137.5 113.5t-170 65.5t-192 20h-177v-495h359v-135h-359v-553z" />
<glyph unicode="&#xd1;" horiz-adv-x="1660" d="M84 1341v146h432l668 -1004q6 -7 41 -68.5t37 -66.5h4q0 7 -2 123.5t-2 120.5v749h-172v146h516v-146h-164v-1343h-207l-721 1096q-1 1 -37 62.5t-37 66.5l-6 -2q1 -15 4.5 -121.5t3.5 -116.5v-836h176v-147h-524v145l164 13v1183h-174zM532 1634q21 110 77 175t139 65 q65 0 160.5 -38t129.5 -38q38 0 55.5 24.5t28.5 80.5l146 -29q-13 -98 -69 -168t-142 -70q-58 0 -160 41t-141 41q-50 0 -78 -106z" />
<glyph unicode="&#xd2;" d="M88 731q0 377 188.5 577.5t532.5 200.5q150 0 272 -40.5t203 -109.5t136 -164t79.5 -199.5t24.5 -219.5q0 -178 -43 -322t-129 -250.5t-223 -165t-316 -58.5q-355 0 -540 187.5t-185 563.5zM334 731q0 -291 112.5 -438.5t368.5 -147.5q80 0 146 17.5t113.5 48t83.5 75 t58.5 94.5t36.5 111t19.5 120t5.5 126q0 109 -14 197.5t-48.5 166.5t-88 130t-136 82t-190.5 30q-467 0 -467 -612zM469 1782l109 176l376 -262l-61 -92z" />
<glyph unicode="&#xd3;" d="M88 731q0 377 188.5 577.5t532.5 200.5q150 0 272 -40.5t203 -109.5t136 -164t79.5 -199.5t24.5 -219.5q0 -178 -43 -322t-129 -250.5t-223 -165t-316 -58.5q-355 0 -540 187.5t-185 563.5zM334 731q0 -291 112.5 -438.5t368.5 -147.5q80 0 146 17.5t113.5 48t83.5 75 t58.5 94.5t36.5 111t19.5 120t5.5 126q0 109 -14 197.5t-48.5 166.5t-88 130t-136 82t-190.5 30q-467 0 -467 -612zM723 1696l375 262l110 -176l-426 -178z" />
<glyph unicode="&#xd4;" d="M88 731q0 377 188.5 577.5t532.5 200.5q150 0 272 -40.5t203 -109.5t136 -164t79.5 -199.5t24.5 -219.5q0 -178 -43 -322t-129 -250.5t-223 -165t-316 -58.5q-355 0 -540 187.5t-185 563.5zM334 731q0 -291 112.5 -438.5t368.5 -147.5q80 0 146 17.5t113.5 48t83.5 75 t58.5 94.5t36.5 111t19.5 120t5.5 126q0 109 -14 197.5t-48.5 166.5t-88 130t-136 82t-190.5 30q-467 0 -467 -612zM485 1675l246 254h141l250 -254l-86 -82l-233 170l-232 -170z" />
<glyph unicode="&#xd5;" d="M88 731q0 377 188.5 577.5t532.5 200.5q150 0 272 -40.5t203 -109.5t136 -164t79.5 -199.5t24.5 -219.5q0 -178 -43 -322t-129 -250.5t-223 -165t-316 -58.5q-355 0 -540 187.5t-185 563.5zM334 731q0 -291 112.5 -438.5t368.5 -147.5q80 0 146 17.5t113.5 48t83.5 75 t58.5 94.5t36.5 111t19.5 120t5.5 126q0 109 -14 197.5t-48.5 166.5t-88 130t-136 82t-190.5 30q-467 0 -467 -612zM436 1634q21 110 76.5 175t138.5 65q65 0 161 -38t130 -38q38 0 55.5 24.5t28.5 80.5l145 -29q-13 -98 -68.5 -168t-141.5 -70q-58 0 -160.5 41t-141.5 41 q-49 0 -77 -106z" />
<glyph unicode="&#xd6;" d="M88 731q0 377 188.5 577.5t532.5 200.5q150 0 272 -40.5t203 -109.5t136 -164t79.5 -199.5t24.5 -219.5q0 -178 -43 -322t-129 -250.5t-223 -165t-316 -58.5q-355 0 -540 187.5t-185 563.5zM334 731q0 -291 112.5 -438.5t368.5 -147.5q80 0 146 17.5t113.5 48t83.5 75 t58.5 94.5t36.5 111t19.5 120t5.5 126q0 109 -14 197.5t-48.5 166.5t-88 130t-136 82t-190.5 30q-467 0 -467 -612zM461 1741q0 127 121 127q120 0 120 -127q0 -125 -120 -125q-59 0 -90 34.5t-31 90.5zM901 1741q0 127 121 127t121 -127q0 -125 -121 -125q-59 0 -90 34.5 t-31 90.5z" />
<glyph unicode="&#xd7;" horiz-adv-x="1185" d="M166 360l315 324l-311 324l115 120l311 -321l305 315l115 -118l-307 -316l313 -323l-113 -117l-315 319l-313 -325z" />
<glyph unicode="&#xd8;" d="M88 731q0 377 188.5 577.5t532.5 200.5q165 0 303 -53l76 150l115 -43l-80 -160q151 -97 226 -263.5t75 -363.5q0 -178 -43 -322t-129 -250.5t-223 -165t-316 -58.5q-159 0 -287 38l-86 -170l-114 41l88 174q-326 170 -326 668zM334 731q0 -359 166 -493l532 1058 q-92 47 -231 47q-467 0 -467 -612zM606 178q85 -33 209 -33q80 0 146 17.5t113.5 48t83.5 75t58.5 94.5t36.5 111t19.5 120t5.5 126q0 339 -145 488z" />
<glyph unicode="&#xd9;" horiz-adv-x="1667" d="M66 1341v146h573v-146h-168v-813q0 -207 98 -294t287 -87q176 0 275.5 92t99.5 283v819h-160v146h528v-146h-163v-833q0 -117 -34.5 -210t-92 -152.5t-135.5 -98.5t-159.5 -55.5t-170.5 -16.5q-133 0 -239.5 28t-190 87.5t-129 162.5t-45.5 243v845h-174zM516 1782 l109 176l376 -262l-61 -92z" />
<glyph unicode="&#xda;" horiz-adv-x="1667" d="M66 1341v146h573v-146h-168v-813q0 -207 98 -294t287 -87q176 0 275.5 92t99.5 283v819h-160v146h528v-146h-163v-833q0 -117 -34.5 -210t-92 -152.5t-135.5 -98.5t-159.5 -55.5t-170.5 -16.5q-133 0 -239.5 28t-190 87.5t-129 162.5t-45.5 243v845h-174zM788 1696 l375 262l111 -176l-426 -178z" />
<glyph unicode="&#xdb;" horiz-adv-x="1667" d="M66 1341v146h573v-146h-168v-813q0 -207 98 -294t287 -87q176 0 275.5 92t99.5 283v819h-160v146h528v-146h-163v-833q0 -117 -34.5 -210t-92 -152.5t-135.5 -98.5t-159.5 -55.5t-170.5 -16.5q-133 0 -239.5 28t-190 87.5t-129 162.5t-45.5 243v845h-174zM565 1675 l246 254h141l250 -254l-86 -82l-233 170l-232 -170z" />
<glyph unicode="&#xdc;" horiz-adv-x="1667" d="M66 1341v146h573v-146h-168v-813q0 -207 98 -294t287 -87q176 0 275.5 92t99.5 283v819h-160v146h528v-146h-163v-833q0 -117 -34.5 -210t-92 -152.5t-135.5 -98.5t-159.5 -55.5t-170.5 -16.5q-133 0 -239.5 28t-190 87.5t-129 162.5t-45.5 243v845h-174zM541 1741 q0 127 121 127q120 0 120 -127q0 -125 -120 -125q-59 0 -90 34.5t-31 90.5zM981 1741q0 127 121 127t121 -127q0 -125 -121 -125q-59 0 -90 34.5t-31 90.5z" />
<glyph unicode="&#xdd;" horiz-adv-x="1406" d="M0 1337v150h567v-146h-170l305 -512l21 -41h2l20 41l302 512h-177v146h537v-150l-158 -12l-428 -692v-488h180v-145h-581v145l170 13v471l-436 696zM668 1696l374 262l111 -176l-426 -178z" />
<glyph unicode="&#xde;" horiz-adv-x="1392" d="M84 1341v146h575v-146h-170v-139h279q83 0 156 -10.5t146 -39t125 -73.5t84 -118t32 -168q0 -208 -136 -322.5t-407 -114.5h-279v-211h254v-145h-649v145l164 13v1183h-174zM489 500h250q167 0 251.5 69t84.5 222q0 80 -27 134.5t-79.5 84t-115.5 41.5t-148 12h-216v-563 z" />
<glyph unicode="&#xdf;" horiz-adv-x="1521" d="M78 915v144h149q11 221 171 356t417 135q227 0 347 -91.5t120 -231.5q0 -122 -62 -210t-208 -161l-70 -37q-20 -10 -26.5 -13.5t-24.5 -15t-26 -20.5t-15.5 -22.5t-7.5 -28.5q0 -7 2.5 -13.5t8.5 -12.5t12 -10t16.5 -8.5l17.5 -7.5t21 -6.5t20.5 -5.5t21 -5.5t19.5 -4.5 l156 -39q143 -35 221 -105.5t78 -193.5q0 -89 -35.5 -156t-97.5 -106t-140.5 -58.5t-171.5 -19.5q-183 0 -340 45v281h158q2 -17 6 -82t6 -82q98 -12 156 -12q252 0 252 166q0 68 -46.5 103.5t-158.5 62.5l-106 28q-129 36 -163 50q-97 43 -110 124q-2 14 -2 29 q0 79 59.5 139t165.5 121q87 49 138 113t51 139q0 101 -77 152t-224 51q-63 0 -119 -23.5t-102.5 -69t-73.5 -122t-27 -174.5v-863q47 0 105 -8v-135h-457v135q11 3 60.5 7.5t80.5 4.5v768h-145z" />
<glyph unicode="&#xe0;" horiz-adv-x="1189" d="M98 270q0 360 672 357v104q0 86 -52.5 136.5t-156.5 50.5q-164 0 -366 -72l-48 151q198 78 449 78q182 0 282.5 -85.5t100.5 -252.5v-473l10 -125h144v-129l-271 -20h-53l-14 131q-67 -68 -170.5 -106t-204.5 -38q-158 0 -240 82.5t-82 210.5zM266 1487l197 57l209 -325 l-135 -23zM313 289q0 -81 51 -124.5t134 -43.5q154 0 272 104v283q-457 8 -457 -219z" />
<glyph unicode="&#xe1;" horiz-adv-x="1189" d="M98 270q0 360 672 357v104q0 86 -52.5 136.5t-156.5 50.5q-164 0 -366 -72l-48 151q198 78 449 78q182 0 282.5 -85.5t100.5 -252.5v-473l10 -125h144v-129l-271 -20h-53l-14 131q-67 -68 -170.5 -106t-204.5 -38q-158 0 -240 82.5t-82 210.5zM313 289q0 -81 51 -124.5 t134 -43.5q154 0 272 104v283q-457 8 -457 -219zM422 1219l209 325l196 -57l-268 -291z" />
<glyph unicode="&#xe2;" horiz-adv-x="1189" d="M98 270q0 360 672 357v104q0 86 -52.5 136.5t-156.5 50.5q-164 0 -366 -72l-48 151q198 78 449 78q182 0 282.5 -85.5t100.5 -252.5v-473l10 -125h144v-129l-271 -20h-53l-14 131q-67 -68 -170.5 -106t-204.5 -38q-158 0 -240 82.5t-82 210.5zM279 1251l206 275h154 l211 -275l-102 -63l-187 194l-182 -194zM313 289q0 -81 51 -124.5t134 -43.5q154 0 272 104v283q-457 8 -457 -219z" />
<glyph unicode="&#xe3;" horiz-adv-x="1189" d="M98 270q0 360 672 357v104q0 86 -52.5 136.5t-156.5 50.5q-164 0 -366 -72l-48 151q198 78 449 78q182 0 282.5 -85.5t100.5 -252.5v-473l10 -125h144v-129l-271 -20h-53l-14 131q-67 -68 -170.5 -106t-204.5 -38q-158 0 -240 82.5t-82 210.5zM201 1225q19 107 75 171 t136 64q65 0 160 -37t126 -37q38 0 56 24.5t28 78.5l144 -27q-13 -97 -68.5 -166t-138.5 -69q-58 0 -159 40t-140 40q-50 0 -78 -105zM313 289q0 -81 51 -124.5t134 -43.5q154 0 272 104v283q-457 8 -457 -219z" />
<glyph unicode="&#xe4;" horiz-adv-x="1189" d="M98 270q0 360 672 357v104q0 86 -52.5 136.5t-156.5 50.5q-164 0 -366 -72l-48 151q198 78 449 78q182 0 282.5 -85.5t100.5 -252.5v-473l10 -125h144v-129l-271 -20h-53l-14 131q-67 -68 -170.5 -106t-204.5 -38q-158 0 -240 82.5t-82 210.5zM217 1366q0 127 121 127 t121 -127q0 -56 -29.5 -89.5t-91.5 -33.5q-60 0 -90.5 34t-30.5 89zM313 289q0 -81 51 -124.5t134 -43.5q154 0 272 104v283q-457 8 -457 -219zM633 1366q0 127 121 127q120 0 120 -127q0 -56 -29.5 -89.5t-90.5 -33.5q-60 0 -90.5 34t-30.5 89z" />
<glyph unicode="&#xe5;" horiz-adv-x="1173" d="M98 270q0 360 672 357v104q0 86 -52.5 136.5t-156.5 50.5q-164 0 -366 -72l-48 151q198 78 449 78q182 0 282.5 -85.5t100.5 -252.5v-473l10 -125h144v-129l-271 -20h-53l-14 131q-67 -68 -170.5 -106t-204.5 -38q-158 0 -240 82.5t-82 210.5zM313 289q0 -81 51 -124.5 t134 -43.5q154 0 272 104v283q-457 8 -457 -219zM362 1354q0 82 52.5 140t142.5 58q94 0 145.5 -54t51.5 -132q0 -83 -55 -137.5t-142 -54.5q-93 0 -144 53.5t-51 126.5zM459 1362q0 -51 26 -83t72 -32q100 0 100 113q0 48 -22.5 82.5t-77.5 34.5q-49 0 -73.5 -33.5 t-24.5 -81.5z" />
<glyph unicode="&#xe6;" horiz-adv-x="1812" d="M98 270q0 360 672 357v104q0 86 -52.5 136.5t-156.5 50.5q-164 0 -366 -72l-48 151q198 78 449 78q241 0 322 -155q135 161 362 161q108 0 195 -37.5t142 -101t84.5 -145.5t29.5 -174v-105h-742q5 -177 98 -280t267 -103q156 0 317 41l31 -139q-81 -29 -184 -46.5 t-191 -17.5q-316 0 -457 193q-158 -189 -450 -189q-158 0 -240 82.5t-82 210.5zM313 289q0 -81 51 -124.5t134 -43.5q101 0 187 42t136 101q-48 99 -51 244q-457 8 -457 -219zM991 635l543 8q0 139 -68 217t-192 78q-112 0 -192 -78t-91 -225z" />
<glyph unicode="&#xe7;" horiz-adv-x="1079" d="M86 522q0 259 149 409t418 150q199 0 324 -43l8 -280h-151l-17 151q-80 19 -168 19q-163 0 -255.5 -105.5t-92.5 -285.5q0 -192 98 -296t273 -104q117 0 289 41l28 -145q-163 -54 -321 -60l-23 -65q103 -8 165 -51t62 -115q0 -96 -77 -146.5t-199 -50.5q-118 0 -195 21 l17 98q68 -14 157 -14q140 0 140 88q0 81 -199 96l-6 8l57 135q-227 19 -354 157.5t-127 387.5z" />
<glyph unicode="&#xe8;" horiz-adv-x="1128" d="M86 524q0 246 139 401.5t373 155.5q108 0 195 -37.5t142 -101t84.5 -145.5t29.5 -174v-105h-744q2 -173 95.5 -275t271.5 -102q140 0 309 45l39 -147q-83 -30 -185.5 -48t-189.5 -18q-277 0 -418 146.5t-141 404.5zM289 1487l196 57l209 -325l-135 -23zM309 635l543 8 q-2 139 -69.5 217t-192.5 78q-111 0 -191 -78.5t-90 -224.5z" />
<glyph unicode="&#xe9;" horiz-adv-x="1128" d="M86 524q0 246 139 401.5t373 155.5q108 0 195 -37.5t142 -101t84.5 -145.5t29.5 -174v-105h-744q2 -173 95.5 -275t271.5 -102q140 0 309 45l39 -147q-83 -30 -185.5 -48t-189.5 -18q-277 0 -418 146.5t-141 404.5zM309 635l543 8q-2 139 -69.5 217t-192.5 78 q-111 0 -191 -78.5t-90 -224.5zM483 1219l209 325l197 -57l-268 -291z" />
<glyph unicode="&#xea;" horiz-adv-x="1128" d="M86 524q0 246 139 401.5t373 155.5q108 0 195 -37.5t142 -101t84.5 -145.5t29.5 -174v-105h-744q2 -173 95.5 -275t271.5 -102q140 0 309 45l39 -147q-83 -30 -185.5 -48t-189.5 -18q-277 0 -418 146.5t-141 404.5zM309 635l543 8q-2 139 -69.5 217t-192.5 78 q-111 0 -191 -78.5t-90 -224.5zM309 1251l207 275h154l211 -275l-103 -63l-186 194l-182 -194z" />
<glyph unicode="&#xeb;" horiz-adv-x="1128" d="M86 524q0 246 139 401.5t373 155.5q108 0 195 -37.5t142 -101t84.5 -145.5t29.5 -174v-105h-744q2 -173 95.5 -275t271.5 -102q140 0 309 45l39 -147q-83 -30 -185.5 -48t-189.5 -18q-277 0 -418 146.5t-141 404.5zM279 1366q0 127 120 127q121 0 121 -127 q0 -56 -29.5 -89.5t-91.5 -33.5q-60 0 -90 33.5t-30 89.5zM309 635l543 8q-2 139 -69.5 217t-192.5 78q-111 0 -191 -78.5t-90 -224.5zM694 1366q0 127 121 127t121 -127q0 -56 -29.5 -89.5t-91.5 -33.5q-60 0 -90.5 34t-30.5 89z" />
<glyph unicode="&#xec;" horiz-adv-x="636" d="M29 1487l196 57l209 -325l-135 -23zM80 913v140l326 16l22 -22v-908h137v-139h-471v139l125 8v758z" />
<glyph unicode="&#xed;" horiz-adv-x="636" d="M80 913v140l326 16l22 -22v-908h137v-139h-471v139l125 8v758zM207 1219l209 325l196 -57l-268 -291z" />
<glyph unicode="&#xee;" horiz-adv-x="636" d="M0 1251l207 275h153l211 -275l-102 -63l-186 194l-183 -194zM80 913v140l326 16l22 -22v-908h137v-139h-471v139l125 8v758z" />
<glyph unicode="&#xef;" horiz-adv-x="636" d="M-8 1366q0 127 121 127q120 0 120 -127q0 -56 -29.5 -89.5t-90.5 -33.5q-60 0 -90.5 34t-30.5 89zM80 913v140l326 16l22 -22v-908h137v-139h-471v139l125 8v758zM408 1366q0 127 120 127q121 0 121 -127q0 -56 -29.5 -89.5t-91.5 -33.5q-60 0 -90 33.5t-30 89.5z" />
<glyph unicode="&#xf0;" horiz-adv-x="1216" d="M86 514q0 174 63.5 302.5t190.5 195t301 51.5l-164 199l-258 -76l-51 92l238 72l-160 194l233 29l131 -162l248 74l53 -92l-229 -70l287 -350q161 -193 161 -451q0 -116 -32 -214t-95.5 -172.5t-165.5 -116.5t-233 -42q-255 0 -386.5 141t-131.5 396zM307 526 q0 -196 71 -299.5t228 -103.5q163 0 235 101.5t72 297.5q0 410 -311 410q-295 0 -295 -406z" />
<glyph unicode="&#xf1;" horiz-adv-x="1323" d="M80 913v140l305 16l16 -14l15 -115q179 135 360 135q169 0 257.5 -95t88.5 -251v-590h131v-139h-462v139l122 8v549q0 67 -21.5 114.5t-58 70.5t-72.5 33t-77 10q-132 0 -256 -88v-697h135v-139h-469v139l125 8v758zM326 1225q19 107 75 171t136 64q65 0 160 -37t126 -37 q38 0 56 24.5t28 78.5l144 -27q-13 -97 -68.5 -166t-138.5 -69q-58 0 -159 40t-140 40q-50 0 -78 -105z" />
<glyph unicode="&#xf2;" horiz-adv-x="1218" d="M86 508q0 126 31.5 229t94.5 180.5t164 120.5t232 43q248 0 386.5 -144t138.5 -390q0 -266 -136.5 -420t-398.5 -154q-247 0 -379.5 143t-132.5 392zM303 1487l197 57l209 -325l-136 -23zM307 526q0 -196 71 -299.5t228 -103.5q163 0 235 101.5t72 297.5q0 410 -311 410 q-295 0 -295 -406z" />
<glyph unicode="&#xf3;" horiz-adv-x="1218" d="M86 508q0 126 31.5 229t94.5 180.5t164 120.5t232 43q248 0 386.5 -144t138.5 -390q0 -266 -136.5 -420t-398.5 -154q-247 0 -379.5 143t-132.5 392zM307 526q0 -196 71 -299.5t228 -103.5q163 0 235 101.5t72 297.5q0 410 -311 410q-295 0 -295 -406zM514 1219l209 325 l197 -57l-269 -291z" />
<glyph unicode="&#xf4;" horiz-adv-x="1218" d="M86 508q0 126 31.5 229t94.5 180.5t164 120.5t232 43q248 0 386.5 -144t138.5 -390q0 -266 -136.5 -420t-398.5 -154q-247 0 -379.5 143t-132.5 392zM307 526q0 -196 71 -299.5t228 -103.5q163 0 235 101.5t72 297.5q0 410 -311 410q-295 0 -295 -406zM322 1251l206 275 h154l211 -275l-102 -63l-187 194l-182 -194z" />
<glyph unicode="&#xf5;" horiz-adv-x="1218" d="M86 508q0 126 31.5 229t94.5 180.5t164 120.5t232 43q248 0 386.5 -144t138.5 -390q0 -266 -136.5 -420t-398.5 -154q-247 0 -379.5 143t-132.5 392zM242 1225q19 107 75 171t136 64q65 0 160 -37t126 -37q38 0 56 24.5t28 78.5l144 -27q-13 -97 -68.5 -166t-138.5 -69 q-58 0 -159 40t-140 40q-50 0 -78 -105zM307 526q0 -196 71 -299.5t228 -103.5q163 0 235 101.5t72 297.5q0 410 -311 410q-295 0 -295 -406z" />
<glyph unicode="&#xf6;" horiz-adv-x="1218" d="M86 508q0 126 31.5 229t94.5 180.5t164 120.5t232 43q248 0 386.5 -144t138.5 -390q0 -266 -136.5 -420t-398.5 -154q-247 0 -379.5 143t-132.5 392zM279 1366q0 127 120 127q121 0 121 -127q0 -56 -29.5 -89.5t-91.5 -33.5q-60 0 -90 33.5t-30 89.5zM307 526 q0 -196 71 -299.5t228 -103.5q163 0 235 101.5t72 297.5q0 410 -311 410q-295 0 -295 -406zM694 1366q0 127 121 127t121 -127q0 -56 -29.5 -89.5t-91.5 -33.5q-60 0 -90.5 34t-30.5 89z" />
<glyph unicode="&#xf7;" horiz-adv-x="1185" d="M102 594v164h981v-164h-981zM467 293q0 125 125 125t125 -125q0 -56 -30.5 -89.5t-94.5 -33.5q-63 0 -94 33.5t-31 89.5zM467 1049q0 122 125 122t125 -122q0 -56 -30.5 -90.5t-94.5 -34.5q-63 0 -94 34.5t-31 90.5z" />
<glyph unicode="&#xf8;" horiz-adv-x="1218" d="M86 508q0 126 31.5 229t94.5 180.5t164 120.5t232 43q109 0 207 -32l72 143l96 -41l-74 -147q109 -68 166.5 -185t57.5 -272q0 -266 -136.5 -420t-398.5 -154q-95 0 -188 27l-72 -147l-98 38l73 150q-112 64 -169.5 183.5t-57.5 283.5zM307 526q0 -223 88 -321l348 698 q-63 29 -141 29q-295 0 -295 -406zM481 143q50 -20 125 -20q163 0 235 101.5t72 297.5q0 213 -86 318z" />
<glyph unicode="&#xf9;" horiz-adv-x="1282" d="M51 915v138l324 16l18 -14l-2 -703q0 -67 21.5 -114.5t57.5 -71t73 -33.5t78 -10q124 0 256 90l2 702h-136v138l326 14l21 -14l-5 -903l136 -7v-139l-301 -14l-17 18l-14 103q-176 -136 -361 -136q-171 0 -259.5 93.5t-88.5 248.5l4 598h-133zM326 1487l196 57l209 -325 l-135 -23z" />
<glyph unicode="&#xfa;" horiz-adv-x="1282" d="M51 915v138l324 16l18 -14l-2 -703q0 -67 21.5 -114.5t57.5 -71t73 -33.5t78 -10q124 0 256 90l2 702h-136v138l326 14l21 -14l-5 -903l136 -7v-139l-301 -14l-17 18l-14 103q-176 -136 -361 -136q-171 0 -259.5 93.5t-88.5 248.5l4 598h-133zM535 1219l208 325l197 -57 l-268 -291z" />
<glyph unicode="&#xfb;" horiz-adv-x="1282" d="M51 915v138l324 16l18 -14l-2 -703q0 -67 21.5 -114.5t57.5 -71t73 -33.5t78 -10q124 0 256 90l2 702h-136v138l326 14l21 -14l-5 -903l136 -7v-139l-301 -14l-17 18l-14 103q-176 -136 -361 -136q-171 0 -259.5 93.5t-88.5 248.5l4 598h-133zM354 1251l207 275h154 l211 -275l-103 -63l-186 194l-182 -194z" />
<glyph unicode="&#xfc;" horiz-adv-x="1282" d="M51 915v138l324 16l18 -14l-2 -703q0 -67 21.5 -114.5t57.5 -71t73 -33.5t78 -10q124 0 256 90l2 702h-136v138l326 14l21 -14l-5 -903l136 -7v-139l-301 -14l-17 18l-14 103q-176 -136 -361 -136q-171 0 -259.5 93.5t-88.5 248.5l4 598h-133zM309 1366q0 127 121 127 t121 -127q0 -56 -29.5 -89.5t-91.5 -33.5q-60 0 -90.5 34t-30.5 89zM725 1366q0 127 121 127t121 -127q0 -56 -29.5 -89.5t-91.5 -33.5q-60 0 -90.5 34t-30.5 89z" />
<glyph unicode="&#xfd;" horiz-adv-x="1169" d="M0 920v141h451v-141h-121l250 -639l18 -64h4l21 62l249 641h-124v141h421v-141l-110 -13l-350 -829q-30 -71 -52.5 -120t-56 -110.5t-63.5 -102.5t-71.5 -83.5t-84.5 -67.5t-98 -41t-117 -16q-51 0 -98 8l8 172q41 -8 110 -8q53 4 97 26t78 60.5t57 76t47 87.5l24 53 l-378 899zM541 1219l209 325l196 -57l-268 -291z" />
<glyph unicode="&#xfe;" horiz-adv-x="1302" d="M63 1438v143l345 23l18 -19v-608q153 100 326 100q99 0 178.5 -28t132.5 -75.5t88 -114t50.5 -140.5t15.5 -158q0 -125 -34.5 -231t-100 -185t-168 -123.5t-230.5 -44.5q-63 0 -138.5 15.5t-119.5 40.5v-330h192v-141h-514v141l111 10v1725h-152zM426 190 q102 -61 244 -61q110 0 185 55.5t107.5 143t32.5 200.5q0 394 -315 394q-53 0 -103 -12t-78 -24.5t-73 -35.5v-660z" />
<glyph unicode="&#xff;" horiz-adv-x="1169" d="M0 920v141h451v-141h-121l250 -639l18 -64h4l21 62l249 641h-124v141h421v-141l-110 -13l-350 -829q-30 -71 -52.5 -120t-56 -110.5t-63.5 -102.5t-71.5 -83.5t-84.5 -67.5t-98 -41t-117 -16q-51 0 -98 8l8 172q41 -8 110 -8q53 4 97 26t78 60.5t57 76t47 87.5l24 53 l-378 899zM272 1366q0 127 121 127t121 -127q0 -56 -29.5 -89.5t-91.5 -33.5q-60 0 -90.5 34t-30.5 89zM688 1366q0 127 121 127t121 -127q0 -56 -29.5 -89.5t-91.5 -33.5q-60 0 -90.5 34t-30.5 89z" />
<glyph unicode="&#x152;" horiz-adv-x="2437" d="M88 731q0 377 188.5 577.5t532.5 200.5q195 0 346 -69v47h1165v-369h-163l-21 217h-575v-485h430l8 119h145v-391h-145l-8 122h-430v-548h600l26 221h166l-18 -373h-1170v55q-150 -75 -352 -75q-355 0 -540 187.5t-185 563.5zM334 731q0 -291 112.5 -438.5t368.5 -147.5 q80 0 146 17.5t113.5 48t83.5 75t58.5 94.5t36.5 111t19.5 120t5.5 126q0 109 -14 197.5t-48.5 166.5t-88 130t-136 82t-190.5 30q-467 0 -467 -612zM1303 1341l26 -24v24h-26zM1309 156l20 2v20z" />
<glyph unicode="&#x153;" horiz-adv-x="1972" d="M86 508q0 126 31.5 229t94.5 180.5t164 120.5t232 43q286 0 426 -192q67 91 170.5 141.5t233.5 50.5q108 0 195 -37.5t142 -101t84 -145.5t29 -174v-105h-743q2 -173 95 -275t271 -102q141 0 310 45l39 -147q-83 -30 -185.5 -48t-189.5 -18q-316 0 -457 193 q-140 -193 -430 -193q-247 0 -379.5 143t-132.5 392zM307 526q0 -196 71 -299.5t228 -103.5q163 0 235 101.5t72 297.5q0 410 -311 410q-295 0 -295 -406zM1149 635l543 8q-2 139 -69.5 217t-192.5 78q-111 0 -191 -78.5t-90 -224.5z" />
<glyph unicode="&#x178;" horiz-adv-x="1406" d="M0 1337v150h567v-146h-170l305 -512l21 -41h2l20 41l302 512h-177v146h537v-150l-158 -12l-428 -692v-488h180v-145h-581v145l170 13v471l-436 696zM389 1741q0 127 121 127t121 -127q0 -125 -121 -125q-59 0 -90 34.5t-31 90.5zM829 1741q0 127 121 127t121 -127 q0 -125 -121 -125q-59 0 -90 34.5t-31 90.5z" />
<glyph unicode="&#x2c6;" horiz-adv-x="735" d="M82 1251l207 275h153l211 -275l-102 -63l-186 194l-183 -194z" />
<glyph unicode="&#x2dc;" horiz-adv-x="884" d="M78 1225q19 107 75 171t136 64q65 0 160 -37t126 -37q38 0 56 24.5t28 78.5l144 -27q-13 -97 -68.5 -166t-138.5 -69q-58 0 -159 40t-140 40q-50 0 -78 -105z" />
<glyph unicode="&#x2000;" horiz-adv-x="989" />
<glyph unicode="&#x2001;" horiz-adv-x="1978" />
<glyph unicode="&#x2002;" horiz-adv-x="989" />
<glyph unicode="&#x2003;" horiz-adv-x="1978" />
<glyph unicode="&#x2004;" horiz-adv-x="659" />
<glyph unicode="&#x2005;" horiz-adv-x="494" />
<glyph unicode="&#x2006;" horiz-adv-x="329" />
<glyph unicode="&#x2007;" horiz-adv-x="329" />
<glyph unicode="&#x2008;" horiz-adv-x="247" />
<glyph unicode="&#x2009;" horiz-adv-x="395" />
<glyph unicode="&#x200a;" horiz-adv-x="109" />
<glyph unicode="&#x2010;" horiz-adv-x="692" d="M84 537v172h522v-172h-522z" />
<glyph unicode="&#x2011;" horiz-adv-x="692" d="M84 537v172h522v-172h-522z" />
<glyph unicode="&#x2012;" horiz-adv-x="692" d="M84 537v172h522v-172h-522z" />
<glyph unicode="&#x2013;" horiz-adv-x="950" d="M0 569v121h950v-121h-950z" />
<glyph unicode="&#x2014;" horiz-adv-x="1808" d="M0 569v121h1808v-121h-1808z" />
<glyph unicode="&#x2018;" horiz-adv-x="460" d="M94 1161l123 383l131 -24l-33 -385h-217z" />
<glyph unicode="&#x2019;" horiz-adv-x="460" d="M111 1149l32 385h219l5 -29l-123 -381z" />
<glyph unicode="&#x201a;" horiz-adv-x="460" d="M111 -205l32 387h219l5 -28l-123 -381z" />
<glyph unicode="&#x201c;" horiz-adv-x="821" d="M94 1161l123 383l131 -24l-33 -385h-217zM457 1161l123 383l131 -24l-33 -385h-217z" />
<glyph unicode="&#x201d;" horiz-adv-x="821" d="M111 1149l32 385h219l5 -29l-123 -381zM473 1149l33 385h217l4 -29l-123 -381z" />
<glyph unicode="&#x201e;" horiz-adv-x="821" d="M111 -199l32 387h219l5 -30l-123 -379zM473 -199l33 387h217l4 -30l-123 -379z" />
<glyph unicode="&#x2022;" horiz-adv-x="864" d="M131 723q0 130 81 214.5t218 84.5q138 0 220.5 -86.5t82.5 -212.5q0 -127 -84.5 -213t-218.5 -86q-133 0 -216 86t-83 213z" />
<glyph unicode="&#x2026;" horiz-adv-x="1501" d="M123 111q0 133 127 133t127 -133q0 -63 -28.5 -97t-98.5 -34q-127 0 -127 131zM623 111q0 133 127 133q129 0 129 -133q0 -62 -29 -96.5t-100 -34.5q-127 0 -127 131zM1122 111q0 65 30 99t99 34q129 0 129 -133q0 -131 -129 -131t-129 131z" />
<glyph unicode="&#x202f;" horiz-adv-x="395" />
<glyph unicode="&#x2039;" horiz-adv-x="655" d="M86 596v125l385 321l98 -104l-268 -276l270 -302l-96 -92z" />
<glyph unicode="&#x203a;" horiz-adv-x="655" d="M86 358l270 304l-268 278l98 102l385 -323v-123l-389 -328z" />
<glyph unicode="&#x205f;" horiz-adv-x="494" />
<glyph unicode="&#x20ac;" horiz-adv-x="1536" d="M76 551v119h160v55q0 82 8 145h-168v119h188q62 249 245.5 385.5t487.5 136.5q249 0 451 -55v-336h-168l-23 205q-142 25 -247 25q-416 0 -504 -361h608v-119h-629q-4 -70 -4 -104q0 -65 2 -96h631v-119h-618q37 -215 161.5 -313.5t356.5 -98.5q111 0 243 27l33 205h170 l-12 -330q-224 -61 -455 -61q-667 0 -747 571h-170z" />
<glyph unicode="&#x2122;" horiz-adv-x="1513" d="M59 1327l4 158h555l5 -158h-93l-4 86h-127v-448h76v-74h-262v74l70 4v444h-129l-4 -86h-91zM672 1413v72h231l150 -420h4l155 420h234v-72h-70v-450h68v-72h-246v74l68 2v360l2 49h-2l-179 -485h-81l-177 487l-4 -2l4 -45v-366h70v-74h-225v72l65 6v444h-67z" />
<glyph unicode="&#x25fc;" horiz-adv-x="1064" d="M0 0v1065h1065v-1065h-1065z" />
<glyph unicode="&#xfb01;" horiz-adv-x="1351" d="M78 915v144h145v88q0 450 406 450q129 0 205 -26l-37 -150q-69 21 -148 21q-121 0 -168 -69t-47 -210v-104h252v-144h-252v-776h191v-139h-525v139l123 8v768h-145zM795 913v140l325 16l23 -22v-908h137v-139h-471v139l125 8v758zM909 1366q0 66 29 99.5t98 33.5 q68 0 97.5 -34.5t29.5 -98.5q0 -129 -127 -129t-127 129z" />
<glyph unicode="&#xfb02;" horiz-adv-x="1345" d="M78 915v144h145v88q0 450 406 450q129 0 205 -26l-3 -6l289 18l19 -16v-1428h135v-139h-469v139l123 8v1272h-152v8q-66 15 -127 15q-121 0 -168 -69t-47 -210v-104h252v-144h-252v-776h191v-139h-525v139l123 8v768h-145z" />
</font>
</defs>
</svg>
