<svg width="32" height="32" viewBox="0 0 32 32" fill="none" xmlns="http://www.w3.org/2000/svg">
    <path fill-rule="evenodd" clip-rule="evenodd" d="M16 0C7.16616 0 0 7.16012 0 16C0 24.8399 7.16012 32 16 32C24.8338 32 32 24.8399 32 16C32 7.16012 24.8338 0 16 0ZM14.7311 20.695H6.30211V20.0545H7.70392V11.9336H6.30211V11.2871H11.9275V11.9336H10.3807V20.0484H10.713C12.5619 20.0484 14.0362 19.4925 14.0362 17.3536V16.9487H14.7311V20.695ZM25.9094 11.9336H26.0786V11.2871H22.6042V11.9336H22.858C23.5589 11.9336 23.9396 12.1874 23.9396 12.695V16.6768L19.5952 11.2932H15.5347V11.9397H15.6012C16.1329 11.9397 16.6707 12.3506 16.6707 12.991V19.0877C16.6707 19.9034 16.2115 20.0484 15.7221 20.0484H15.4864V20.6889L18.9909 20.701L18.9547 20.0484H18.852C17.9698 20.0484 17.6193 19.9216 17.6193 19.1602V13.2932L23.571 20.6889H24.9003V12.6527C24.9003 12.3143 25.1964 11.9336 25.9094 11.9336Z" fill="#006998"/>
</svg>
